<?xml version="1.0" encoding="utf-8" standalone="no"?>
<!DOCTYPE svg PUBLIC "-//W3C//DTD SVG 1.1//EN"
  "http://www.w3.org/Graphics/SVG/1.1/DTD/svg11.dtd">
<svg xmlns:xlink="http://www.w3.org/1999/xlink" width="856.199653pt" height="567.034375pt" viewBox="0 0 856.199653 567.034375" xmlns="http://www.w3.org/2000/svg" version="1.1">
 <metadata>
  <rdf:RDF xmlns:dc="http://purl.org/dc/elements/1.1/" xmlns:cc="http://creativecommons.org/ns#" xmlns:rdf="http://www.w3.org/1999/02/22-rdf-syntax-ns#">
   <cc:Work>
    <dc:type rdf:resource="http://purl.org/dc/dcmitype/StillImage"/>
    <dc:date>2025-05-29T00:04:04.075553</dc:date>
    <dc:format>image/svg+xml</dc:format>
    <dc:creator>
     <cc:Agent>
      <dc:title>Matplotlib v3.10.3, https://matplotlib.org/</dc:title>
     </cc:Agent>
    </dc:creator>
   </cc:Work>
  </rdf:RDF>
 </metadata>
 <defs>
  <style type="text/css">*{stroke-linejoin: round; stroke-linecap: butt}</style>
 </defs>
 <g id="figure_1">
  <g id="patch_1">
   <path d="M 0 567.034375 
L 856.199653 567.034375 
L 856.199653 0 
L 0 0 
z
" style="fill: #ffffff"/>
  </g>
  <g id="axes_1">
   <g id="patch_2">
    <path d="M 79.279688 246.878125 
L 844.81196 246.878125 
L 844.81196 22.318125 
L 79.279688 22.318125 
z
" style="fill: #ffffff"/>
   </g>
   <g id="patch_3">
    <path d="M 114.076609 246.878125 
L 157.572761 246.878125 
L 157.572761 211.233681 
L 114.076609 211.233681 
z
" clip-path="url(#pe5a8534c1d)" style="fill: #ff7f0e; stroke: #000000; stroke-width: 0.5; stroke-linejoin: miter"/>
   </g>
   <g id="patch_4">
    <path d="M 168.446799 246.878125 
L 211.942951 246.878125 
L 211.942951 211.233681 
L 168.446799 211.233681 
z
" clip-path="url(#pe5a8534c1d)" style="fill: #ff7f0e; stroke: #000000; stroke-width: 0.5; stroke-linejoin: miter"/>
   </g>
   <g id="patch_5">
    <path d="M 222.816989 246.878125 
L 266.31314 246.878125 
L 266.31314 211.233681 
L 222.816989 211.233681 
z
" clip-path="url(#pe5a8534c1d)" style="fill: #ff7f0e; stroke: #000000; stroke-width: 0.5; stroke-linejoin: miter"/>
   </g>
   <g id="patch_6">
    <path d="M 277.187178 246.878125 
L 320.68333 246.878125 
L 320.68333 211.233681 
L 277.187178 211.233681 
z
" clip-path="url(#pe5a8534c1d)" style="fill: #ff7f0e; stroke: #000000; stroke-width: 0.5; stroke-linejoin: miter"/>
   </g>
   <g id="patch_7">
    <path d="M 331.557368 246.878125 
L 375.05352 246.878125 
L 375.05352 211.233681 
L 331.557368 211.233681 
z
" clip-path="url(#pe5a8534c1d)" style="fill: #ff7f0e; stroke: #000000; stroke-width: 0.5; stroke-linejoin: miter"/>
   </g>
   <g id="patch_8">
    <path d="M 385.927558 246.878125 
L 429.42371 246.878125 
L 429.42371 211.233681 
L 385.927558 211.233681 
z
" clip-path="url(#pe5a8534c1d)" style="fill: #ff7f0e; stroke: #000000; stroke-width: 0.5; stroke-linejoin: miter"/>
   </g>
   <g id="patch_9">
    <path d="M 494.667938 246.878125 
L 538.16409 246.878125 
L 538.16409 211.233681 
L 494.667938 211.233681 
z
" clip-path="url(#pe5a8534c1d)" style="fill: #2ca02c; stroke: #000000; stroke-width: 0.5; stroke-linejoin: miter"/>
   </g>
   <g id="patch_10">
    <path d="M 549.038128 246.878125 
L 592.534279 246.878125 
L 592.534279 211.233681 
L 549.038128 211.233681 
z
" clip-path="url(#pe5a8534c1d)" style="fill: #2ca02c; stroke: #000000; stroke-width: 0.5; stroke-linejoin: miter"/>
   </g>
   <g id="patch_11">
    <path d="M 603.408317 246.878125 
L 646.904469 246.878125 
L 646.904469 211.233681 
L 603.408317 211.233681 
z
" clip-path="url(#pe5a8534c1d)" style="fill: #2ca02c; stroke: #000000; stroke-width: 0.5; stroke-linejoin: miter"/>
   </g>
   <g id="patch_12">
    <path d="M 657.778507 246.878125 
L 701.274659 246.878125 
L 701.274659 211.233681 
L 657.778507 211.233681 
z
" clip-path="url(#pe5a8534c1d)" style="fill: #2ca02c; stroke: #000000; stroke-width: 0.5; stroke-linejoin: miter"/>
   </g>
   <g id="patch_13">
    <path d="M 712.148697 246.878125 
L 755.644849 246.878125 
L 755.644849 211.233681 
L 712.148697 211.233681 
z
" clip-path="url(#pe5a8534c1d)" style="fill: #2ca02c; stroke: #000000; stroke-width: 0.5; stroke-linejoin: miter"/>
   </g>
   <g id="patch_14">
    <path d="M 766.518887 246.878125 
L 810.015039 246.878125 
L 810.015039 211.233681 
L 766.518887 211.233681 
z
" clip-path="url(#pe5a8534c1d)" style="fill: #2ca02c; stroke: #000000; stroke-width: 0.5; stroke-linejoin: miter"/>
   </g>
   <g id="patch_15">
    <path d="M 114.076609 211.233681 
L 157.572761 211.233681 
L 157.572761 175.589236 
L 114.076609 175.589236 
z
" clip-path="url(#pe5a8534c1d)" style="fill: #ff7f0e; stroke: #000000; stroke-width: 0.5; stroke-linejoin: miter"/>
   </g>
   <g id="patch_16">
    <path d="M 168.446799 211.233681 
L 211.942951 211.233681 
L 211.942951 175.589236 
L 168.446799 175.589236 
z
" clip-path="url(#pe5a8534c1d)" style="fill: #ff7f0e; stroke: #000000; stroke-width: 0.5; stroke-linejoin: miter"/>
   </g>
   <g id="patch_17">
    <path d="M 222.816989 211.233681 
L 266.31314 211.233681 
L 266.31314 175.589236 
L 222.816989 175.589236 
z
" clip-path="url(#pe5a8534c1d)" style="fill: #ff7f0e; stroke: #000000; stroke-width: 0.5; stroke-linejoin: miter"/>
   </g>
   <g id="patch_18">
    <path d="M 277.187178 211.233681 
L 320.68333 211.233681 
L 320.68333 175.589236 
L 277.187178 175.589236 
z
" clip-path="url(#pe5a8534c1d)" style="fill: #ff7f0e; stroke: #000000; stroke-width: 0.5; stroke-linejoin: miter"/>
   </g>
   <g id="patch_19">
    <path d="M 331.557368 211.233681 
L 375.05352 211.233681 
L 375.05352 175.589236 
L 331.557368 175.589236 
z
" clip-path="url(#pe5a8534c1d)" style="fill: #ff7f0e; stroke: #000000; stroke-width: 0.5; stroke-linejoin: miter"/>
   </g>
   <g id="patch_20">
    <path d="M 385.927558 211.233681 
L 429.42371 211.233681 
L 429.42371 175.589236 
L 385.927558 175.589236 
z
" clip-path="url(#pe5a8534c1d)" style="fill: #ff7f0e; stroke: #000000; stroke-width: 0.5; stroke-linejoin: miter"/>
   </g>
   <g id="patch_21">
    <path d="M 494.667938 211.233681 
L 538.16409 211.233681 
L 538.16409 175.589236 
L 494.667938 175.589236 
z
" clip-path="url(#pe5a8534c1d)" style="fill: #2ca02c; stroke: #000000; stroke-width: 0.5; stroke-linejoin: miter"/>
   </g>
   <g id="patch_22">
    <path d="M 549.038128 211.233681 
L 592.534279 211.233681 
L 592.534279 175.589236 
L 549.038128 175.589236 
z
" clip-path="url(#pe5a8534c1d)" style="fill: #2ca02c; stroke: #000000; stroke-width: 0.5; stroke-linejoin: miter"/>
   </g>
   <g id="patch_23">
    <path d="M 603.408317 211.233681 
L 646.904469 211.233681 
L 646.904469 175.589236 
L 603.408317 175.589236 
z
" clip-path="url(#pe5a8534c1d)" style="fill: #2ca02c; stroke: #000000; stroke-width: 0.5; stroke-linejoin: miter"/>
   </g>
   <g id="patch_24">
    <path d="M 657.778507 211.233681 
L 701.274659 211.233681 
L 701.274659 175.589236 
L 657.778507 175.589236 
z
" clip-path="url(#pe5a8534c1d)" style="fill: #2ca02c; stroke: #000000; stroke-width: 0.5; stroke-linejoin: miter"/>
   </g>
   <g id="patch_25">
    <path d="M 712.148697 211.233681 
L 755.644849 211.233681 
L 755.644849 175.589236 
L 712.148697 175.589236 
z
" clip-path="url(#pe5a8534c1d)" style="fill: #2ca02c; stroke: #000000; stroke-width: 0.5; stroke-linejoin: miter"/>
   </g>
   <g id="patch_26">
    <path d="M 766.518887 211.233681 
L 810.015039 211.233681 
L 810.015039 175.589236 
L 766.518887 175.589236 
z
" clip-path="url(#pe5a8534c1d)" style="fill: #2ca02c; stroke: #000000; stroke-width: 0.5; stroke-linejoin: miter"/>
   </g>
   <g id="patch_27">
    <path d="M 168.446799 175.589236 
L 211.942951 175.589236 
L 211.942951 139.944792 
L 168.446799 139.944792 
z
" clip-path="url(#pe5a8534c1d)" style="fill: #ff7f0e; stroke: #000000; stroke-width: 0.5; stroke-linejoin: miter"/>
   </g>
   <g id="patch_28">
    <path d="M 222.816989 175.589236 
L 266.31314 175.589236 
L 266.31314 139.944792 
L 222.816989 139.944792 
z
" clip-path="url(#pe5a8534c1d)" style="fill: #ff7f0e; stroke: #000000; stroke-width: 0.5; stroke-linejoin: miter"/>
   </g>
   <g id="patch_29">
    <path d="M 277.187178 175.589236 
L 320.68333 175.589236 
L 320.68333 139.944792 
L 277.187178 139.944792 
z
" clip-path="url(#pe5a8534c1d)" style="fill: #ff7f0e; stroke: #000000; stroke-width: 0.5; stroke-linejoin: miter"/>
   </g>
   <g id="patch_30">
    <path d="M 331.557368 175.589236 
L 375.05352 175.589236 
L 375.05352 139.944792 
L 331.557368 139.944792 
z
" clip-path="url(#pe5a8534c1d)" style="fill: #ff7f0e; stroke: #000000; stroke-width: 0.5; stroke-linejoin: miter"/>
   </g>
   <g id="patch_31">
    <path d="M 385.927558 175.589236 
L 429.42371 175.589236 
L 429.42371 139.944792 
L 385.927558 139.944792 
z
" clip-path="url(#pe5a8534c1d)" style="fill: #ff7f0e; stroke: #000000; stroke-width: 0.5; stroke-linejoin: miter"/>
   </g>
   <g id="patch_32">
    <path d="M 440.297748 175.589236 
L 483.7939 175.589236 
L 483.7939 139.944792 
L 440.297748 139.944792 
z
" clip-path="url(#pe5a8534c1d)" style="fill: #ff7f0e; stroke: #000000; stroke-width: 0.5; stroke-linejoin: miter"/>
   </g>
   <g id="patch_33">
    <path d="M 168.446799 139.944792 
L 211.942951 139.944792 
L 211.942951 104.300347 
L 168.446799 104.300347 
z
" clip-path="url(#pe5a8534c1d)" style="fill: #ff7f0e; stroke: #000000; stroke-width: 0.5; stroke-linejoin: miter"/>
   </g>
   <g id="patch_34">
    <path d="M 222.816989 139.944792 
L 266.31314 139.944792 
L 266.31314 104.300347 
L 222.816989 104.300347 
z
" clip-path="url(#pe5a8534c1d)" style="fill: #ff7f0e; stroke: #000000; stroke-width: 0.5; stroke-linejoin: miter"/>
   </g>
   <g id="patch_35">
    <path d="M 277.187178 139.944792 
L 320.68333 139.944792 
L 320.68333 104.300347 
L 277.187178 104.300347 
z
" clip-path="url(#pe5a8534c1d)" style="fill: #ff7f0e; stroke: #000000; stroke-width: 0.5; stroke-linejoin: miter"/>
   </g>
   <g id="patch_36">
    <path d="M 331.557368 139.944792 
L 375.05352 139.944792 
L 375.05352 104.300347 
L 331.557368 104.300347 
z
" clip-path="url(#pe5a8534c1d)" style="fill: #ff7f0e; stroke: #000000; stroke-width: 0.5; stroke-linejoin: miter"/>
   </g>
   <g id="patch_37">
    <path d="M 385.927558 139.944792 
L 429.42371 139.944792 
L 429.42371 104.300347 
L 385.927558 104.300347 
z
" clip-path="url(#pe5a8534c1d)" style="fill: #ff7f0e; stroke: #000000; stroke-width: 0.5; stroke-linejoin: miter"/>
   </g>
   <g id="patch_38">
    <path d="M 440.297748 139.944792 
L 483.7939 139.944792 
L 483.7939 104.300347 
L 440.297748 104.300347 
z
" clip-path="url(#pe5a8534c1d)" style="fill: #ff7f0e; stroke: #000000; stroke-width: 0.5; stroke-linejoin: miter"/>
   </g>
   <g id="patch_39">
    <path d="M 168.446799 104.300347 
L 211.942951 104.300347 
L 211.942951 68.655903 
L 168.446799 68.655903 
z
" clip-path="url(#pe5a8534c1d)" style="fill: #ff7f0e; stroke: #000000; stroke-width: 0.5; stroke-linejoin: miter"/>
   </g>
   <g id="patch_40">
    <path d="M 222.816989 104.300347 
L 266.31314 104.300347 
L 266.31314 68.655903 
L 222.816989 68.655903 
z
" clip-path="url(#pe5a8534c1d)" style="fill: #ff7f0e; stroke: #000000; stroke-width: 0.5; stroke-linejoin: miter"/>
   </g>
   <g id="patch_41">
    <path d="M 277.187178 104.300347 
L 320.68333 104.300347 
L 320.68333 68.655903 
L 277.187178 68.655903 
z
" clip-path="url(#pe5a8534c1d)" style="fill: #ff7f0e; stroke: #000000; stroke-width: 0.5; stroke-linejoin: miter"/>
   </g>
   <g id="patch_42">
    <path d="M 331.557368 104.300347 
L 375.05352 104.300347 
L 375.05352 68.655903 
L 331.557368 68.655903 
z
" clip-path="url(#pe5a8534c1d)" style="fill: #ff7f0e; stroke: #000000; stroke-width: 0.5; stroke-linejoin: miter"/>
   </g>
   <g id="patch_43">
    <path d="M 385.927558 104.300347 
L 429.42371 104.300347 
L 429.42371 68.655903 
L 385.927558 68.655903 
z
" clip-path="url(#pe5a8534c1d)" style="fill: #ff7f0e; stroke: #000000; stroke-width: 0.5; stroke-linejoin: miter"/>
   </g>
   <g id="patch_44">
    <path d="M 440.297748 104.300347 
L 483.7939 104.300347 
L 483.7939 68.655903 
L 440.297748 68.655903 
z
" clip-path="url(#pe5a8534c1d)" style="fill: #ff7f0e; stroke: #000000; stroke-width: 0.5; stroke-linejoin: miter"/>
   </g>
   <g id="patch_45">
    <path d="M 494.667938 104.300347 
L 538.16409 104.300347 
L 538.16409 68.655903 
L 494.667938 68.655903 
z
" clip-path="url(#pe5a8534c1d)" style="fill: #ff7f0e; stroke: #000000; stroke-width: 0.5; stroke-linejoin: miter"/>
   </g>
   <g id="patch_46">
    <path d="M 549.038128 104.300347 
L 592.534279 104.300347 
L 592.534279 68.655903 
L 549.038128 68.655903 
z
" clip-path="url(#pe5a8534c1d)" style="fill: #ff7f0e; stroke: #000000; stroke-width: 0.5; stroke-linejoin: miter"/>
   </g>
   <g id="patch_47">
    <path d="M 603.408317 104.300347 
L 646.904469 104.300347 
L 646.904469 68.655903 
L 603.408317 68.655903 
z
" clip-path="url(#pe5a8534c1d)" style="fill: #ff7f0e; stroke: #000000; stroke-width: 0.5; stroke-linejoin: miter"/>
   </g>
   <g id="patch_48">
    <path d="M 657.778507 104.300347 
L 701.274659 104.300347 
L 701.274659 68.655903 
L 657.778507 68.655903 
z
" clip-path="url(#pe5a8534c1d)" style="fill: #ff7f0e; stroke: #000000; stroke-width: 0.5; stroke-linejoin: miter"/>
   </g>
   <g id="patch_49">
    <path d="M 712.148697 104.300347 
L 755.644849 104.300347 
L 755.644849 68.655903 
L 712.148697 68.655903 
z
" clip-path="url(#pe5a8534c1d)" style="fill: #ff7f0e; stroke: #000000; stroke-width: 0.5; stroke-linejoin: miter"/>
   </g>
   <g id="patch_50">
    <path d="M 766.518887 104.300347 
L 810.015039 104.300347 
L 810.015039 68.655903 
L 766.518887 68.655903 
z
" clip-path="url(#pe5a8534c1d)" style="fill: #ff7f0e; stroke: #000000; stroke-width: 0.5; stroke-linejoin: miter"/>
   </g>
   <g id="patch_51">
    <path d="M 114.076609 68.655903 
L 157.572761 68.655903 
L 157.572761 33.011458 
L 114.076609 33.011458 
z
" clip-path="url(#pe5a8534c1d)" style="fill: #ff7f0e; stroke: #000000; stroke-width: 0.5; stroke-linejoin: miter"/>
   </g>
   <g id="patch_52">
    <path d="M 168.446799 68.655903 
L 211.942951 68.655903 
L 211.942951 33.011458 
L 168.446799 33.011458 
z
" clip-path="url(#pe5a8534c1d)" style="fill: #ff7f0e; stroke: #000000; stroke-width: 0.5; stroke-linejoin: miter"/>
   </g>
   <g id="patch_53">
    <path d="M 222.816989 68.655903 
L 266.31314 68.655903 
L 266.31314 33.011458 
L 222.816989 33.011458 
z
" clip-path="url(#pe5a8534c1d)" style="fill: #ff7f0e; stroke: #000000; stroke-width: 0.5; stroke-linejoin: miter"/>
   </g>
   <g id="patch_54">
    <path d="M 277.187178 68.655903 
L 320.68333 68.655903 
L 320.68333 33.011458 
L 277.187178 33.011458 
z
" clip-path="url(#pe5a8534c1d)" style="fill: #ff7f0e; stroke: #000000; stroke-width: 0.5; stroke-linejoin: miter"/>
   </g>
   <g id="patch_55">
    <path d="M 331.557368 68.655903 
L 375.05352 68.655903 
L 375.05352 33.011458 
L 331.557368 33.011458 
z
" clip-path="url(#pe5a8534c1d)" style="fill: #ff7f0e; stroke: #000000; stroke-width: 0.5; stroke-linejoin: miter"/>
   </g>
   <g id="patch_56">
    <path d="M 385.927558 68.655903 
L 429.42371 68.655903 
L 429.42371 33.011458 
L 385.927558 33.011458 
z
" clip-path="url(#pe5a8534c1d)" style="fill: #ff7f0e; stroke: #000000; stroke-width: 0.5; stroke-linejoin: miter"/>
   </g>
   <g id="patch_57">
    <path d="M 440.297748 68.655903 
L 483.7939 68.655903 
L 483.7939 33.011458 
L 440.297748 33.011458 
z
" clip-path="url(#pe5a8534c1d)" style="fill: #ff7f0e; stroke: #000000; stroke-width: 0.5; stroke-linejoin: miter"/>
   </g>
   <g id="patch_58">
    <path d="M 549.038128 68.655903 
L 592.534279 68.655903 
L 592.534279 33.011458 
L 549.038128 33.011458 
z
" clip-path="url(#pe5a8534c1d)" style="fill: #ff7f0e; stroke: #000000; stroke-width: 0.5; stroke-linejoin: miter"/>
   </g>
   <g id="patch_59">
    <path d="M 603.408317 68.655903 
L 646.904469 68.655903 
L 646.904469 33.011458 
L 603.408317 33.011458 
z
" clip-path="url(#pe5a8534c1d)" style="fill: #ff7f0e; stroke: #000000; stroke-width: 0.5; stroke-linejoin: miter"/>
   </g>
   <g id="patch_60">
    <path d="M 657.778507 68.655903 
L 701.274659 68.655903 
L 701.274659 33.011458 
L 657.778507 33.011458 
z
" clip-path="url(#pe5a8534c1d)" style="fill: #ff7f0e; stroke: #000000; stroke-width: 0.5; stroke-linejoin: miter"/>
   </g>
   <g id="patch_61">
    <path d="M 712.148697 68.655903 
L 755.644849 68.655903 
L 755.644849 33.011458 
L 712.148697 33.011458 
z
" clip-path="url(#pe5a8534c1d)" style="fill: #ff7f0e; stroke: #000000; stroke-width: 0.5; stroke-linejoin: miter"/>
   </g>
   <g id="patch_62">
    <path d="M 766.518887 68.655903 
L 810.015039 68.655903 
L 810.015039 33.011458 
L 766.518887 33.011458 
z
" clip-path="url(#pe5a8534c1d)" style="fill: #ff7f0e; stroke: #000000; stroke-width: 0.5; stroke-linejoin: miter"/>
   </g>
   <g id="matplotlib.axis_1">
    <g id="xtick_1">
     <g id="line2d_1">
      <defs>
       <path id="ma6ca3287cc" d="M 0 0 
L 0 3.5 
" style="stroke: #000000; stroke-width: 0.8"/>
      </defs>
      <g>
       <use xlink:href="#ma6ca3287cc" x="81.454495" y="246.878125" style="stroke: #000000; stroke-width: 0.8"/>
      </g>
     </g>
     <g id="text_1">
      <!-- 10 -->
      <g transform="translate(75.091995 261.476562) scale(0.1 -0.1)">
       <defs>
        <path id="DejaVuSans-31" d="M 794 531 
L 1825 531 
L 1825 4091 
L 703 3866 
L 703 4441 
L 1819 4666 
L 2450 4666 
L 2450 531 
L 3481 531 
L 3481 0 
L 794 0 
L 794 531 
z
" transform="scale(0.015625)"/>
        <path id="DejaVuSans-30" d="M 2034 4250 
Q 1547 4250 1301 3770 
Q 1056 3291 1056 2328 
Q 1056 1369 1301 889 
Q 1547 409 2034 409 
Q 2525 409 2770 889 
Q 3016 1369 3016 2328 
Q 3016 3291 2770 3770 
Q 2525 4250 2034 4250 
z
M 2034 4750 
Q 2819 4750 3233 4129 
Q 3647 3509 3647 2328 
Q 3647 1150 3233 529 
Q 2819 -91 2034 -91 
Q 1250 -91 836 529 
Q 422 1150 422 2328 
Q 422 3509 836 4129 
Q 1250 4750 2034 4750 
z
" transform="scale(0.015625)"/>
       </defs>
       <use xlink:href="#DejaVuSans-31"/>
       <use xlink:href="#DejaVuSans-30" transform="translate(63.623047 0)"/>
      </g>
     </g>
    </g>
    <g id="xtick_2">
     <g id="line2d_2">
      <g>
       <use xlink:href="#ma6ca3287cc" x="190.194875" y="246.878125" style="stroke: #000000; stroke-width: 0.8"/>
      </g>
     </g>
     <g id="text_2">
      <!-- 12 -->
      <g transform="translate(183.832375 261.476562) scale(0.1 -0.1)">
       <defs>
        <path id="DejaVuSans-32" d="M 1228 531 
L 3431 531 
L 3431 0 
L 469 0 
L 469 531 
Q 828 903 1448 1529 
Q 2069 2156 2228 2338 
Q 2531 2678 2651 2914 
Q 2772 3150 2772 3378 
Q 2772 3750 2511 3984 
Q 2250 4219 1831 4219 
Q 1534 4219 1204 4116 
Q 875 4013 500 3803 
L 500 4441 
Q 881 4594 1212 4672 
Q 1544 4750 1819 4750 
Q 2544 4750 2975 4387 
Q 3406 4025 3406 3419 
Q 3406 3131 3298 2873 
Q 3191 2616 2906 2266 
Q 2828 2175 2409 1742 
Q 1991 1309 1228 531 
z
" transform="scale(0.015625)"/>
       </defs>
       <use xlink:href="#DejaVuSans-31"/>
       <use xlink:href="#DejaVuSans-32" transform="translate(63.623047 0)"/>
      </g>
     </g>
    </g>
    <g id="xtick_3">
     <g id="line2d_3">
      <g>
       <use xlink:href="#ma6ca3287cc" x="298.935254" y="246.878125" style="stroke: #000000; stroke-width: 0.8"/>
      </g>
     </g>
     <g id="text_3">
      <!-- 14 -->
      <g transform="translate(292.572754 261.476562) scale(0.1 -0.1)">
       <defs>
        <path id="DejaVuSans-34" d="M 2419 4116 
L 825 1625 
L 2419 1625 
L 2419 4116 
z
M 2253 4666 
L 3047 4666 
L 3047 1625 
L 3713 1625 
L 3713 1100 
L 3047 1100 
L 3047 0 
L 2419 0 
L 2419 1100 
L 313 1100 
L 313 1709 
L 2253 4666 
z
" transform="scale(0.015625)"/>
       </defs>
       <use xlink:href="#DejaVuSans-31"/>
       <use xlink:href="#DejaVuSans-34" transform="translate(63.623047 0)"/>
      </g>
     </g>
    </g>
    <g id="xtick_4">
     <g id="line2d_4">
      <g>
       <use xlink:href="#ma6ca3287cc" x="407.675634" y="246.878125" style="stroke: #000000; stroke-width: 0.8"/>
      </g>
     </g>
     <g id="text_4">
      <!-- 16 -->
      <g transform="translate(401.313134 261.476562) scale(0.1 -0.1)">
       <defs>
        <path id="DejaVuSans-36" d="M 2113 2584 
Q 1688 2584 1439 2293 
Q 1191 2003 1191 1497 
Q 1191 994 1439 701 
Q 1688 409 2113 409 
Q 2538 409 2786 701 
Q 3034 994 3034 1497 
Q 3034 2003 2786 2293 
Q 2538 2584 2113 2584 
z
M 3366 4563 
L 3366 3988 
Q 3128 4100 2886 4159 
Q 2644 4219 2406 4219 
Q 1781 4219 1451 3797 
Q 1122 3375 1075 2522 
Q 1259 2794 1537 2939 
Q 1816 3084 2150 3084 
Q 2853 3084 3261 2657 
Q 3669 2231 3669 1497 
Q 3669 778 3244 343 
Q 2819 -91 2113 -91 
Q 1303 -91 875 529 
Q 447 1150 447 2328 
Q 447 3434 972 4092 
Q 1497 4750 2381 4750 
Q 2619 4750 2861 4703 
Q 3103 4656 3366 4563 
z
" transform="scale(0.015625)"/>
       </defs>
       <use xlink:href="#DejaVuSans-31"/>
       <use xlink:href="#DejaVuSans-36" transform="translate(63.623047 0)"/>
      </g>
     </g>
    </g>
    <g id="xtick_5">
     <g id="line2d_5">
      <g>
       <use xlink:href="#ma6ca3287cc" x="516.416014" y="246.878125" style="stroke: #000000; stroke-width: 0.8"/>
      </g>
     </g>
     <g id="text_5">
      <!-- 18 -->
      <g transform="translate(510.053514 261.476562) scale(0.1 -0.1)">
       <defs>
        <path id="DejaVuSans-38" d="M 2034 2216 
Q 1584 2216 1326 1975 
Q 1069 1734 1069 1313 
Q 1069 891 1326 650 
Q 1584 409 2034 409 
Q 2484 409 2743 651 
Q 3003 894 3003 1313 
Q 3003 1734 2745 1975 
Q 2488 2216 2034 2216 
z
M 1403 2484 
Q 997 2584 770 2862 
Q 544 3141 544 3541 
Q 544 4100 942 4425 
Q 1341 4750 2034 4750 
Q 2731 4750 3128 4425 
Q 3525 4100 3525 3541 
Q 3525 3141 3298 2862 
Q 3072 2584 2669 2484 
Q 3125 2378 3379 2068 
Q 3634 1759 3634 1313 
Q 3634 634 3220 271 
Q 2806 -91 2034 -91 
Q 1263 -91 848 271 
Q 434 634 434 1313 
Q 434 1759 690 2068 
Q 947 2378 1403 2484 
z
M 1172 3481 
Q 1172 3119 1398 2916 
Q 1625 2713 2034 2713 
Q 2441 2713 2670 2916 
Q 2900 3119 2900 3481 
Q 2900 3844 2670 4047 
Q 2441 4250 2034 4250 
Q 1625 4250 1398 4047 
Q 1172 3844 1172 3481 
z
" transform="scale(0.015625)"/>
       </defs>
       <use xlink:href="#DejaVuSans-31"/>
       <use xlink:href="#DejaVuSans-38" transform="translate(63.623047 0)"/>
      </g>
     </g>
    </g>
    <g id="xtick_6">
     <g id="line2d_6">
      <g>
       <use xlink:href="#ma6ca3287cc" x="625.156393" y="246.878125" style="stroke: #000000; stroke-width: 0.8"/>
      </g>
     </g>
     <g id="text_6">
      <!-- 20 -->
      <g transform="translate(618.793893 261.476562) scale(0.1 -0.1)">
       <use xlink:href="#DejaVuSans-32"/>
       <use xlink:href="#DejaVuSans-30" transform="translate(63.623047 0)"/>
      </g>
     </g>
    </g>
    <g id="xtick_7">
     <g id="line2d_7">
      <g>
       <use xlink:href="#ma6ca3287cc" x="733.896773" y="246.878125" style="stroke: #000000; stroke-width: 0.8"/>
      </g>
     </g>
     <g id="text_7">
      <!-- 22 -->
      <g transform="translate(727.534273 261.476562) scale(0.1 -0.1)">
       <use xlink:href="#DejaVuSans-32"/>
       <use xlink:href="#DejaVuSans-32" transform="translate(63.623047 0)"/>
      </g>
     </g>
    </g>
    <g id="xtick_8">
     <g id="line2d_8">
      <g>
       <use xlink:href="#ma6ca3287cc" x="842.637153" y="246.878125" style="stroke: #000000; stroke-width: 0.8"/>
      </g>
     </g>
     <g id="text_8">
      <!-- 24 -->
      <g transform="translate(836.274653 261.476562) scale(0.1 -0.1)">
       <use xlink:href="#DejaVuSans-32"/>
       <use xlink:href="#DejaVuSans-34" transform="translate(63.623047 0)"/>
      </g>
     </g>
    </g>
    <g id="text_9">
     <!-- Time Period -->
     <g transform="translate(432.634886 275.154687) scale(0.1 -0.1)">
      <defs>
       <path id="DejaVuSans-54" d="M -19 4666 
L 3928 4666 
L 3928 4134 
L 2272 4134 
L 2272 0 
L 1638 0 
L 1638 4134 
L -19 4134 
L -19 4666 
z
" transform="scale(0.015625)"/>
       <path id="DejaVuSans-69" d="M 603 3500 
L 1178 3500 
L 1178 0 
L 603 0 
L 603 3500 
z
M 603 4863 
L 1178 4863 
L 1178 4134 
L 603 4134 
L 603 4863 
z
" transform="scale(0.015625)"/>
       <path id="DejaVuSans-6d" d="M 3328 2828 
Q 3544 3216 3844 3400 
Q 4144 3584 4550 3584 
Q 5097 3584 5394 3201 
Q 5691 2819 5691 2113 
L 5691 0 
L 5113 0 
L 5113 2094 
Q 5113 2597 4934 2840 
Q 4756 3084 4391 3084 
Q 3944 3084 3684 2787 
Q 3425 2491 3425 1978 
L 3425 0 
L 2847 0 
L 2847 2094 
Q 2847 2600 2669 2842 
Q 2491 3084 2119 3084 
Q 1678 3084 1418 2786 
Q 1159 2488 1159 1978 
L 1159 0 
L 581 0 
L 581 3500 
L 1159 3500 
L 1159 2956 
Q 1356 3278 1631 3431 
Q 1906 3584 2284 3584 
Q 2666 3584 2933 3390 
Q 3200 3197 3328 2828 
z
" transform="scale(0.015625)"/>
       <path id="DejaVuSans-65" d="M 3597 1894 
L 3597 1613 
L 953 1613 
Q 991 1019 1311 708 
Q 1631 397 2203 397 
Q 2534 397 2845 478 
Q 3156 559 3463 722 
L 3463 178 
Q 3153 47 2828 -22 
Q 2503 -91 2169 -91 
Q 1331 -91 842 396 
Q 353 884 353 1716 
Q 353 2575 817 3079 
Q 1281 3584 2069 3584 
Q 2775 3584 3186 3129 
Q 3597 2675 3597 1894 
z
M 3022 2063 
Q 3016 2534 2758 2815 
Q 2500 3097 2075 3097 
Q 1594 3097 1305 2825 
Q 1016 2553 972 2059 
L 3022 2063 
z
" transform="scale(0.015625)"/>
       <path id="DejaVuSans-20" transform="scale(0.015625)"/>
       <path id="DejaVuSans-50" d="M 1259 4147 
L 1259 2394 
L 2053 2394 
Q 2494 2394 2734 2622 
Q 2975 2850 2975 3272 
Q 2975 3691 2734 3919 
Q 2494 4147 2053 4147 
L 1259 4147 
z
M 628 4666 
L 2053 4666 
Q 2838 4666 3239 4311 
Q 3641 3956 3641 3272 
Q 3641 2581 3239 2228 
Q 2838 1875 2053 1875 
L 1259 1875 
L 1259 0 
L 628 0 
L 628 4666 
z
" transform="scale(0.015625)"/>
       <path id="DejaVuSans-72" d="M 2631 2963 
Q 2534 3019 2420 3045 
Q 2306 3072 2169 3072 
Q 1681 3072 1420 2755 
Q 1159 2438 1159 1844 
L 1159 0 
L 581 0 
L 581 3500 
L 1159 3500 
L 1159 2956 
Q 1341 3275 1631 3429 
Q 1922 3584 2338 3584 
Q 2397 3584 2469 3576 
Q 2541 3569 2628 3553 
L 2631 2963 
z
" transform="scale(0.015625)"/>
       <path id="DejaVuSans-6f" d="M 1959 3097 
Q 1497 3097 1228 2736 
Q 959 2375 959 1747 
Q 959 1119 1226 758 
Q 1494 397 1959 397 
Q 2419 397 2687 759 
Q 2956 1122 2956 1747 
Q 2956 2369 2687 2733 
Q 2419 3097 1959 3097 
z
M 1959 3584 
Q 2709 3584 3137 3096 
Q 3566 2609 3566 1747 
Q 3566 888 3137 398 
Q 2709 -91 1959 -91 
Q 1206 -91 779 398 
Q 353 888 353 1747 
Q 353 2609 779 3096 
Q 1206 3584 1959 3584 
z
" transform="scale(0.015625)"/>
       <path id="DejaVuSans-64" d="M 2906 2969 
L 2906 4863 
L 3481 4863 
L 3481 0 
L 2906 0 
L 2906 525 
Q 2725 213 2448 61 
Q 2172 -91 1784 -91 
Q 1150 -91 751 415 
Q 353 922 353 1747 
Q 353 2572 751 3078 
Q 1150 3584 1784 3584 
Q 2172 3584 2448 3432 
Q 2725 3281 2906 2969 
z
M 947 1747 
Q 947 1113 1208 752 
Q 1469 391 1925 391 
Q 2381 391 2643 752 
Q 2906 1113 2906 1747 
Q 2906 2381 2643 2742 
Q 2381 3103 1925 3103 
Q 1469 3103 1208 2742 
Q 947 2381 947 1747 
z
" transform="scale(0.015625)"/>
      </defs>
      <use xlink:href="#DejaVuSans-54"/>
      <use xlink:href="#DejaVuSans-69" transform="translate(57.958984 0)"/>
      <use xlink:href="#DejaVuSans-6d" transform="translate(85.742188 0)"/>
      <use xlink:href="#DejaVuSans-65" transform="translate(183.154297 0)"/>
      <use xlink:href="#DejaVuSans-20" transform="translate(244.677734 0)"/>
      <use xlink:href="#DejaVuSans-50" transform="translate(276.464844 0)"/>
      <use xlink:href="#DejaVuSans-65" transform="translate(333.142578 0)"/>
      <use xlink:href="#DejaVuSans-72" transform="translate(394.666016 0)"/>
      <use xlink:href="#DejaVuSans-69" transform="translate(435.779297 0)"/>
      <use xlink:href="#DejaVuSans-6f" transform="translate(463.5625 0)"/>
      <use xlink:href="#DejaVuSans-64" transform="translate(524.744141 0)"/>
     </g>
    </g>
   </g>
   <g id="matplotlib.axis_2">
    <g id="ytick_1">
     <g id="line2d_9">
      <defs>
       <path id="m19e607cae3" d="M 0 0 
L -3.5 0 
" style="stroke: #000000; stroke-width: 0.8"/>
      </defs>
      <g>
       <use xlink:href="#m19e607cae3" x="79.279688" y="246.878125" style="stroke: #000000; stroke-width: 0.8"/>
      </g>
     </g>
     <g id="text_10">
      <!-- Machine 1 -->
      <g transform="translate(20.878125 250.677344) scale(0.1 -0.1)">
       <defs>
        <path id="DejaVuSans-4d" d="M 628 4666 
L 1569 4666 
L 2759 1491 
L 3956 4666 
L 4897 4666 
L 4897 0 
L 4281 0 
L 4281 4097 
L 3078 897 
L 2444 897 
L 1241 4097 
L 1241 0 
L 628 0 
L 628 4666 
z
" transform="scale(0.015625)"/>
        <path id="DejaVuSans-61" d="M 2194 1759 
Q 1497 1759 1228 1600 
Q 959 1441 959 1056 
Q 959 750 1161 570 
Q 1363 391 1709 391 
Q 2188 391 2477 730 
Q 2766 1069 2766 1631 
L 2766 1759 
L 2194 1759 
z
M 3341 1997 
L 3341 0 
L 2766 0 
L 2766 531 
Q 2569 213 2275 61 
Q 1981 -91 1556 -91 
Q 1019 -91 701 211 
Q 384 513 384 1019 
Q 384 1609 779 1909 
Q 1175 2209 1959 2209 
L 2766 2209 
L 2766 2266 
Q 2766 2663 2505 2880 
Q 2244 3097 1772 3097 
Q 1472 3097 1187 3025 
Q 903 2953 641 2809 
L 641 3341 
Q 956 3463 1253 3523 
Q 1550 3584 1831 3584 
Q 2591 3584 2966 3190 
Q 3341 2797 3341 1997 
z
" transform="scale(0.015625)"/>
        <path id="DejaVuSans-63" d="M 3122 3366 
L 3122 2828 
Q 2878 2963 2633 3030 
Q 2388 3097 2138 3097 
Q 1578 3097 1268 2742 
Q 959 2388 959 1747 
Q 959 1106 1268 751 
Q 1578 397 2138 397 
Q 2388 397 2633 464 
Q 2878 531 3122 666 
L 3122 134 
Q 2881 22 2623 -34 
Q 2366 -91 2075 -91 
Q 1284 -91 818 406 
Q 353 903 353 1747 
Q 353 2603 823 3093 
Q 1294 3584 2113 3584 
Q 2378 3584 2631 3529 
Q 2884 3475 3122 3366 
z
" transform="scale(0.015625)"/>
        <path id="DejaVuSans-68" d="M 3513 2113 
L 3513 0 
L 2938 0 
L 2938 2094 
Q 2938 2591 2744 2837 
Q 2550 3084 2163 3084 
Q 1697 3084 1428 2787 
Q 1159 2491 1159 1978 
L 1159 0 
L 581 0 
L 581 4863 
L 1159 4863 
L 1159 2956 
Q 1366 3272 1645 3428 
Q 1925 3584 2291 3584 
Q 2894 3584 3203 3211 
Q 3513 2838 3513 2113 
z
" transform="scale(0.015625)"/>
        <path id="DejaVuSans-6e" d="M 3513 2113 
L 3513 0 
L 2938 0 
L 2938 2094 
Q 2938 2591 2744 2837 
Q 2550 3084 2163 3084 
Q 1697 3084 1428 2787 
Q 1159 2491 1159 1978 
L 1159 0 
L 581 0 
L 581 3500 
L 1159 3500 
L 1159 2956 
Q 1366 3272 1645 3428 
Q 1925 3584 2291 3584 
Q 2894 3584 3203 3211 
Q 3513 2838 3513 2113 
z
" transform="scale(0.015625)"/>
       </defs>
       <use xlink:href="#DejaVuSans-4d"/>
       <use xlink:href="#DejaVuSans-61" transform="translate(86.279297 0)"/>
       <use xlink:href="#DejaVuSans-63" transform="translate(147.558594 0)"/>
       <use xlink:href="#DejaVuSans-68" transform="translate(202.539062 0)"/>
       <use xlink:href="#DejaVuSans-69" transform="translate(265.917969 0)"/>
       <use xlink:href="#DejaVuSans-6e" transform="translate(293.701172 0)"/>
       <use xlink:href="#DejaVuSans-65" transform="translate(357.080078 0)"/>
       <use xlink:href="#DejaVuSans-20" transform="translate(418.603516 0)"/>
       <use xlink:href="#DejaVuSans-31" transform="translate(450.390625 0)"/>
      </g>
     </g>
    </g>
    <g id="ytick_2">
     <g id="line2d_10">
      <g>
       <use xlink:href="#m19e607cae3" x="79.279688" y="211.233681" style="stroke: #000000; stroke-width: 0.8"/>
      </g>
     </g>
     <g id="text_11">
      <!-- Machine 2 -->
      <g transform="translate(20.878125 215.032899) scale(0.1 -0.1)">
       <use xlink:href="#DejaVuSans-4d"/>
       <use xlink:href="#DejaVuSans-61" transform="translate(86.279297 0)"/>
       <use xlink:href="#DejaVuSans-63" transform="translate(147.558594 0)"/>
       <use xlink:href="#DejaVuSans-68" transform="translate(202.539062 0)"/>
       <use xlink:href="#DejaVuSans-69" transform="translate(265.917969 0)"/>
       <use xlink:href="#DejaVuSans-6e" transform="translate(293.701172 0)"/>
       <use xlink:href="#DejaVuSans-65" transform="translate(357.080078 0)"/>
       <use xlink:href="#DejaVuSans-20" transform="translate(418.603516 0)"/>
       <use xlink:href="#DejaVuSans-32" transform="translate(450.390625 0)"/>
      </g>
     </g>
    </g>
    <g id="ytick_3">
     <g id="line2d_11">
      <g>
       <use xlink:href="#m19e607cae3" x="79.279688" y="175.589236" style="stroke: #000000; stroke-width: 0.8"/>
      </g>
     </g>
     <g id="text_12">
      <!-- Machine 3 -->
      <g transform="translate(20.878125 179.388455) scale(0.1 -0.1)">
       <defs>
        <path id="DejaVuSans-33" d="M 2597 2516 
Q 3050 2419 3304 2112 
Q 3559 1806 3559 1356 
Q 3559 666 3084 287 
Q 2609 -91 1734 -91 
Q 1441 -91 1130 -33 
Q 819 25 488 141 
L 488 750 
Q 750 597 1062 519 
Q 1375 441 1716 441 
Q 2309 441 2620 675 
Q 2931 909 2931 1356 
Q 2931 1769 2642 2001 
Q 2353 2234 1838 2234 
L 1294 2234 
L 1294 2753 
L 1863 2753 
Q 2328 2753 2575 2939 
Q 2822 3125 2822 3475 
Q 2822 3834 2567 4026 
Q 2313 4219 1838 4219 
Q 1578 4219 1281 4162 
Q 984 4106 628 3988 
L 628 4550 
Q 988 4650 1302 4700 
Q 1616 4750 1894 4750 
Q 2613 4750 3031 4423 
Q 3450 4097 3450 3541 
Q 3450 3153 3228 2886 
Q 3006 2619 2597 2516 
z
" transform="scale(0.015625)"/>
       </defs>
       <use xlink:href="#DejaVuSans-4d"/>
       <use xlink:href="#DejaVuSans-61" transform="translate(86.279297 0)"/>
       <use xlink:href="#DejaVuSans-63" transform="translate(147.558594 0)"/>
       <use xlink:href="#DejaVuSans-68" transform="translate(202.539062 0)"/>
       <use xlink:href="#DejaVuSans-69" transform="translate(265.917969 0)"/>
       <use xlink:href="#DejaVuSans-6e" transform="translate(293.701172 0)"/>
       <use xlink:href="#DejaVuSans-65" transform="translate(357.080078 0)"/>
       <use xlink:href="#DejaVuSans-20" transform="translate(418.603516 0)"/>
       <use xlink:href="#DejaVuSans-33" transform="translate(450.390625 0)"/>
      </g>
     </g>
    </g>
    <g id="ytick_4">
     <g id="line2d_12">
      <g>
       <use xlink:href="#m19e607cae3" x="79.279688" y="139.944792" style="stroke: #000000; stroke-width: 0.8"/>
      </g>
     </g>
     <g id="text_13">
      <!-- Machine 4 -->
      <g transform="translate(20.878125 143.74401) scale(0.1 -0.1)">
       <use xlink:href="#DejaVuSans-4d"/>
       <use xlink:href="#DejaVuSans-61" transform="translate(86.279297 0)"/>
       <use xlink:href="#DejaVuSans-63" transform="translate(147.558594 0)"/>
       <use xlink:href="#DejaVuSans-68" transform="translate(202.539062 0)"/>
       <use xlink:href="#DejaVuSans-69" transform="translate(265.917969 0)"/>
       <use xlink:href="#DejaVuSans-6e" transform="translate(293.701172 0)"/>
       <use xlink:href="#DejaVuSans-65" transform="translate(357.080078 0)"/>
       <use xlink:href="#DejaVuSans-20" transform="translate(418.603516 0)"/>
       <use xlink:href="#DejaVuSans-34" transform="translate(450.390625 0)"/>
      </g>
     </g>
    </g>
    <g id="ytick_5">
     <g id="line2d_13">
      <g>
       <use xlink:href="#m19e607cae3" x="79.279688" y="104.300347" style="stroke: #000000; stroke-width: 0.8"/>
      </g>
     </g>
     <g id="text_14">
      <!-- Machine 5 -->
      <g transform="translate(20.878125 108.099566) scale(0.1 -0.1)">
       <defs>
        <path id="DejaVuSans-35" d="M 691 4666 
L 3169 4666 
L 3169 4134 
L 1269 4134 
L 1269 2991 
Q 1406 3038 1543 3061 
Q 1681 3084 1819 3084 
Q 2600 3084 3056 2656 
Q 3513 2228 3513 1497 
Q 3513 744 3044 326 
Q 2575 -91 1722 -91 
Q 1428 -91 1123 -41 
Q 819 9 494 109 
L 494 744 
Q 775 591 1075 516 
Q 1375 441 1709 441 
Q 2250 441 2565 725 
Q 2881 1009 2881 1497 
Q 2881 1984 2565 2268 
Q 2250 2553 1709 2553 
Q 1456 2553 1204 2497 
Q 953 2441 691 2322 
L 691 4666 
z
" transform="scale(0.015625)"/>
       </defs>
       <use xlink:href="#DejaVuSans-4d"/>
       <use xlink:href="#DejaVuSans-61" transform="translate(86.279297 0)"/>
       <use xlink:href="#DejaVuSans-63" transform="translate(147.558594 0)"/>
       <use xlink:href="#DejaVuSans-68" transform="translate(202.539062 0)"/>
       <use xlink:href="#DejaVuSans-69" transform="translate(265.917969 0)"/>
       <use xlink:href="#DejaVuSans-6e" transform="translate(293.701172 0)"/>
       <use xlink:href="#DejaVuSans-65" transform="translate(357.080078 0)"/>
       <use xlink:href="#DejaVuSans-20" transform="translate(418.603516 0)"/>
       <use xlink:href="#DejaVuSans-35" transform="translate(450.390625 0)"/>
      </g>
     </g>
    </g>
    <g id="ytick_6">
     <g id="line2d_14">
      <g>
       <use xlink:href="#m19e607cae3" x="79.279688" y="68.655903" style="stroke: #000000; stroke-width: 0.8"/>
      </g>
     </g>
     <g id="text_15">
      <!-- Machine 6 -->
      <g transform="translate(20.878125 72.455122) scale(0.1 -0.1)">
       <use xlink:href="#DejaVuSans-4d"/>
       <use xlink:href="#DejaVuSans-61" transform="translate(86.279297 0)"/>
       <use xlink:href="#DejaVuSans-63" transform="translate(147.558594 0)"/>
       <use xlink:href="#DejaVuSans-68" transform="translate(202.539062 0)"/>
       <use xlink:href="#DejaVuSans-69" transform="translate(265.917969 0)"/>
       <use xlink:href="#DejaVuSans-6e" transform="translate(293.701172 0)"/>
       <use xlink:href="#DejaVuSans-65" transform="translate(357.080078 0)"/>
       <use xlink:href="#DejaVuSans-20" transform="translate(418.603516 0)"/>
       <use xlink:href="#DejaVuSans-36" transform="translate(450.390625 0)"/>
      </g>
     </g>
    </g>
    <g id="text_16">
     <!-- Machine -->
     <g transform="translate(14.798438 155.528594) rotate(-90) scale(0.1 -0.1)">
      <use xlink:href="#DejaVuSans-4d"/>
      <use xlink:href="#DejaVuSans-61" transform="translate(86.279297 0)"/>
      <use xlink:href="#DejaVuSans-63" transform="translate(147.558594 0)"/>
      <use xlink:href="#DejaVuSans-68" transform="translate(202.539062 0)"/>
      <use xlink:href="#DejaVuSans-69" transform="translate(265.917969 0)"/>
      <use xlink:href="#DejaVuSans-6e" transform="translate(293.701172 0)"/>
      <use xlink:href="#DejaVuSans-65" transform="translate(357.080078 0)"/>
     </g>
    </g>
   </g>
   <g id="patch_63">
    <path d="M 79.279688 246.878125 
L 79.279688 22.318125 
" style="fill: none; stroke: #000000; stroke-width: 0.8; stroke-linejoin: miter; stroke-linecap: square"/>
   </g>
   <g id="patch_64">
    <path d="M 844.81196 246.878125 
L 844.81196 22.318125 
" style="fill: none; stroke: #000000; stroke-width: 0.8; stroke-linejoin: miter; stroke-linecap: square"/>
   </g>
   <g id="patch_65">
    <path d="M 79.279688 246.878125 
L 844.81196 246.878125 
" style="fill: none; stroke: #000000; stroke-width: 0.8; stroke-linejoin: miter; stroke-linecap: square"/>
   </g>
   <g id="patch_66">
    <path d="M 79.279688 22.318125 
L 844.81196 22.318125 
" style="fill: none; stroke: #000000; stroke-width: 0.8; stroke-linejoin: miter; stroke-linecap: square"/>
   </g>
   <g id="text_17">
    <!-- Machine Schedule -->
    <g transform="translate(407.449574 16.318125) scale(0.12 -0.12)">
     <defs>
      <path id="DejaVuSans-53" d="M 3425 4513 
L 3425 3897 
Q 3066 4069 2747 4153 
Q 2428 4238 2131 4238 
Q 1616 4238 1336 4038 
Q 1056 3838 1056 3469 
Q 1056 3159 1242 3001 
Q 1428 2844 1947 2747 
L 2328 2669 
Q 3034 2534 3370 2195 
Q 3706 1856 3706 1288 
Q 3706 609 3251 259 
Q 2797 -91 1919 -91 
Q 1588 -91 1214 -16 
Q 841 59 441 206 
L 441 856 
Q 825 641 1194 531 
Q 1563 422 1919 422 
Q 2459 422 2753 634 
Q 3047 847 3047 1241 
Q 3047 1584 2836 1778 
Q 2625 1972 2144 2069 
L 1759 2144 
Q 1053 2284 737 2584 
Q 422 2884 422 3419 
Q 422 4038 858 4394 
Q 1294 4750 2059 4750 
Q 2388 4750 2728 4690 
Q 3069 4631 3425 4513 
z
" transform="scale(0.015625)"/>
      <path id="DejaVuSans-75" d="M 544 1381 
L 544 3500 
L 1119 3500 
L 1119 1403 
Q 1119 906 1312 657 
Q 1506 409 1894 409 
Q 2359 409 2629 706 
Q 2900 1003 2900 1516 
L 2900 3500 
L 3475 3500 
L 3475 0 
L 2900 0 
L 2900 538 
Q 2691 219 2414 64 
Q 2138 -91 1772 -91 
Q 1169 -91 856 284 
Q 544 659 544 1381 
z
M 1991 3584 
L 1991 3584 
z
" transform="scale(0.015625)"/>
      <path id="DejaVuSans-6c" d="M 603 4863 
L 1178 4863 
L 1178 0 
L 603 0 
L 603 4863 
z
" transform="scale(0.015625)"/>
     </defs>
     <use xlink:href="#DejaVuSans-4d"/>
     <use xlink:href="#DejaVuSans-61" transform="translate(86.279297 0)"/>
     <use xlink:href="#DejaVuSans-63" transform="translate(147.558594 0)"/>
     <use xlink:href="#DejaVuSans-68" transform="translate(202.539062 0)"/>
     <use xlink:href="#DejaVuSans-69" transform="translate(265.917969 0)"/>
     <use xlink:href="#DejaVuSans-6e" transform="translate(293.701172 0)"/>
     <use xlink:href="#DejaVuSans-65" transform="translate(357.080078 0)"/>
     <use xlink:href="#DejaVuSans-20" transform="translate(418.603516 0)"/>
     <use xlink:href="#DejaVuSans-53" transform="translate(450.390625 0)"/>
     <use xlink:href="#DejaVuSans-63" transform="translate(513.867188 0)"/>
     <use xlink:href="#DejaVuSans-68" transform="translate(568.847656 0)"/>
     <use xlink:href="#DejaVuSans-65" transform="translate(632.226562 0)"/>
     <use xlink:href="#DejaVuSans-64" transform="translate(693.75 0)"/>
     <use xlink:href="#DejaVuSans-75" transform="translate(757.226562 0)"/>
     <use xlink:href="#DejaVuSans-6c" transform="translate(820.605469 0)"/>
     <use xlink:href="#DejaVuSans-65" transform="translate(848.388672 0)"/>
    </g>
   </g>
   <g id="legend_1">
    <g id="patch_67">
     <path d="M 780.854148 59.674375 
L 837.81196 59.674375 
Q 839.81196 59.674375 839.81196 57.674375 
L 839.81196 29.318125 
Q 839.81196 27.318125 837.81196 27.318125 
L 780.854148 27.318125 
Q 778.854148 27.318125 778.854148 29.318125 
L 778.854148 57.674375 
Q 778.854148 59.674375 780.854148 59.674375 
z
" style="fill: #ffffff; opacity: 0.8; stroke: #cccccc; stroke-linejoin: miter"/>
    </g>
    <g id="patch_68">
     <path d="M 782.854148 38.916562 
L 802.854148 38.916562 
L 802.854148 31.916562 
L 782.854148 31.916562 
z
" style="fill: #ff7f0e; stroke: #000000; stroke-width: 0.5; stroke-linejoin: miter"/>
    </g>
    <g id="text_18">
     <!-- Job 1 -->
     <g transform="translate(810.854148 38.916562) scale(0.1 -0.1)">
      <defs>
       <path id="DejaVuSans-4a" d="M 628 4666 
L 1259 4666 
L 1259 325 
Q 1259 -519 939 -900 
Q 619 -1281 -91 -1281 
L -331 -1281 
L -331 -750 
L -134 -750 
Q 284 -750 456 -515 
Q 628 -281 628 325 
L 628 4666 
z
" transform="scale(0.015625)"/>
       <path id="DejaVuSans-62" d="M 3116 1747 
Q 3116 2381 2855 2742 
Q 2594 3103 2138 3103 
Q 1681 3103 1420 2742 
Q 1159 2381 1159 1747 
Q 1159 1113 1420 752 
Q 1681 391 2138 391 
Q 2594 391 2855 752 
Q 3116 1113 3116 1747 
z
M 1159 2969 
Q 1341 3281 1617 3432 
Q 1894 3584 2278 3584 
Q 2916 3584 3314 3078 
Q 3713 2572 3713 1747 
Q 3713 922 3314 415 
Q 2916 -91 2278 -91 
Q 1894 -91 1617 61 
Q 1341 213 1159 525 
L 1159 0 
L 581 0 
L 581 4863 
L 1159 4863 
L 1159 2969 
z
" transform="scale(0.015625)"/>
      </defs>
      <use xlink:href="#DejaVuSans-4a"/>
      <use xlink:href="#DejaVuSans-6f" transform="translate(29.492188 0)"/>
      <use xlink:href="#DejaVuSans-62" transform="translate(90.673828 0)"/>
      <use xlink:href="#DejaVuSans-20" transform="translate(154.150391 0)"/>
      <use xlink:href="#DejaVuSans-31" transform="translate(185.9375 0)"/>
     </g>
    </g>
    <g id="patch_69">
     <path d="M 782.854148 53.594687 
L 802.854148 53.594687 
L 802.854148 46.594687 
L 782.854148 46.594687 
z
" style="fill: #ff7f0e; stroke: #000000; stroke-width: 0.5; stroke-linejoin: miter"/>
    </g>
    <g id="text_19">
     <!-- Job 2 -->
     <g transform="translate(810.854148 53.594687) scale(0.1 -0.1)">
      <use xlink:href="#DejaVuSans-4a"/>
      <use xlink:href="#DejaVuSans-6f" transform="translate(29.492188 0)"/>
      <use xlink:href="#DejaVuSans-62" transform="translate(90.673828 0)"/>
      <use xlink:href="#DejaVuSans-20" transform="translate(154.150391 0)"/>
      <use xlink:href="#DejaVuSans-32" transform="translate(185.9375 0)"/>
     </g>
    </g>
   </g>
  </g>
  <g id="axes_2">
   <g id="patch_70">
    <path d="M 79.279688 529.478125 
L 844.81196 529.478125 
L 844.81196 304.918125 
L 79.279688 304.918125 
z
" style="fill: #ffffff"/>
   </g>
   <g id="matplotlib.axis_3">
    <g id="xtick_9">
     <g id="line2d_15">
      <g>
       <use xlink:href="#ma6ca3287cc" x="82.443044" y="529.478125" style="stroke: #000000; stroke-width: 0.8"/>
      </g>
     </g>
     <g id="text_20">
      <!-- 0 -->
      <g transform="translate(79.261794 544.076562) scale(0.1 -0.1)">
       <use xlink:href="#DejaVuSans-30"/>
      </g>
     </g>
    </g>
    <g id="xtick_10">
     <g id="line2d_16">
      <g>
       <use xlink:href="#ma6ca3287cc" x="240.610869" y="529.478125" style="stroke: #000000; stroke-width: 0.8"/>
      </g>
     </g>
     <g id="text_21">
      <!-- 5 -->
      <g transform="translate(237.429619 544.076562) scale(0.1 -0.1)">
       <use xlink:href="#DejaVuSans-35"/>
      </g>
     </g>
    </g>
    <g id="xtick_11">
     <g id="line2d_17">
      <g>
       <use xlink:href="#ma6ca3287cc" x="398.778694" y="529.478125" style="stroke: #000000; stroke-width: 0.8"/>
      </g>
     </g>
     <g id="text_22">
      <!-- 10 -->
      <g transform="translate(392.416194 544.076562) scale(0.1 -0.1)">
       <use xlink:href="#DejaVuSans-31"/>
       <use xlink:href="#DejaVuSans-30" transform="translate(63.623047 0)"/>
      </g>
     </g>
    </g>
    <g id="xtick_12">
     <g id="line2d_18">
      <g>
       <use xlink:href="#ma6ca3287cc" x="556.946519" y="529.478125" style="stroke: #000000; stroke-width: 0.8"/>
      </g>
     </g>
     <g id="text_23">
      <!-- 15 -->
      <g transform="translate(550.584019 544.076562) scale(0.1 -0.1)">
       <use xlink:href="#DejaVuSans-31"/>
       <use xlink:href="#DejaVuSans-35" transform="translate(63.623047 0)"/>
      </g>
     </g>
    </g>
    <g id="xtick_13">
     <g id="line2d_19">
      <g>
       <use xlink:href="#ma6ca3287cc" x="715.114344" y="529.478125" style="stroke: #000000; stroke-width: 0.8"/>
      </g>
     </g>
     <g id="text_24">
      <!-- 20 -->
      <g transform="translate(708.751844 544.076562) scale(0.1 -0.1)">
       <use xlink:href="#DejaVuSans-32"/>
       <use xlink:href="#DejaVuSans-30" transform="translate(63.623047 0)"/>
      </g>
     </g>
    </g>
    <g id="text_25">
     <!-- Time Period -->
     <g transform="translate(432.634886 557.754687) scale(0.1 -0.1)">
      <use xlink:href="#DejaVuSans-54"/>
      <use xlink:href="#DejaVuSans-69" transform="translate(57.958984 0)"/>
      <use xlink:href="#DejaVuSans-6d" transform="translate(85.742188 0)"/>
      <use xlink:href="#DejaVuSans-65" transform="translate(183.154297 0)"/>
      <use xlink:href="#DejaVuSans-20" transform="translate(244.677734 0)"/>
      <use xlink:href="#DejaVuSans-50" transform="translate(276.464844 0)"/>
      <use xlink:href="#DejaVuSans-65" transform="translate(333.142578 0)"/>
      <use xlink:href="#DejaVuSans-72" transform="translate(394.666016 0)"/>
      <use xlink:href="#DejaVuSans-69" transform="translate(435.779297 0)"/>
      <use xlink:href="#DejaVuSans-6f" transform="translate(463.5625 0)"/>
      <use xlink:href="#DejaVuSans-64" transform="translate(524.744141 0)"/>
     </g>
    </g>
   </g>
   <g id="matplotlib.axis_4">
    <g id="ytick_7">
     <g id="line2d_20">
      <g>
       <use xlink:href="#m19e607cae3" x="79.279688" y="519.270852" style="stroke: #000000; stroke-width: 0.8"/>
      </g>
     </g>
     <g id="text_26">
      <!-- 0 -->
      <g transform="translate(65.917188 523.070071) scale(0.1 -0.1)">
       <use xlink:href="#DejaVuSans-30"/>
      </g>
     </g>
    </g>
    <g id="ytick_8">
     <g id="line2d_21">
      <g>
       <use xlink:href="#m19e607cae3" x="79.279688" y="469.479278" style="stroke: #000000; stroke-width: 0.8"/>
      </g>
     </g>
     <g id="text_27">
      <!-- 50000 -->
      <g transform="translate(40.467188 473.278497) scale(0.1 -0.1)">
       <use xlink:href="#DejaVuSans-35"/>
       <use xlink:href="#DejaVuSans-30" transform="translate(63.623047 0)"/>
       <use xlink:href="#DejaVuSans-30" transform="translate(127.246094 0)"/>
       <use xlink:href="#DejaVuSans-30" transform="translate(190.869141 0)"/>
       <use xlink:href="#DejaVuSans-30" transform="translate(254.492188 0)"/>
      </g>
     </g>
    </g>
    <g id="ytick_9">
     <g id="line2d_22">
      <g>
       <use xlink:href="#m19e607cae3" x="79.279688" y="419.687704" style="stroke: #000000; stroke-width: 0.8"/>
      </g>
     </g>
     <g id="text_28">
      <!-- 100000 -->
      <g transform="translate(34.104688 423.486922) scale(0.1 -0.1)">
       <use xlink:href="#DejaVuSans-31"/>
       <use xlink:href="#DejaVuSans-30" transform="translate(63.623047 0)"/>
       <use xlink:href="#DejaVuSans-30" transform="translate(127.246094 0)"/>
       <use xlink:href="#DejaVuSans-30" transform="translate(190.869141 0)"/>
       <use xlink:href="#DejaVuSans-30" transform="translate(254.492188 0)"/>
       <use xlink:href="#DejaVuSans-30" transform="translate(318.115234 0)"/>
      </g>
     </g>
    </g>
    <g id="ytick_10">
     <g id="line2d_23">
      <g>
       <use xlink:href="#m19e607cae3" x="79.279688" y="369.896129" style="stroke: #000000; stroke-width: 0.8"/>
      </g>
     </g>
     <g id="text_29">
      <!-- 150000 -->
      <g transform="translate(34.104688 373.695348) scale(0.1 -0.1)">
       <use xlink:href="#DejaVuSans-31"/>
       <use xlink:href="#DejaVuSans-35" transform="translate(63.623047 0)"/>
       <use xlink:href="#DejaVuSans-30" transform="translate(127.246094 0)"/>
       <use xlink:href="#DejaVuSans-30" transform="translate(190.869141 0)"/>
       <use xlink:href="#DejaVuSans-30" transform="translate(254.492188 0)"/>
       <use xlink:href="#DejaVuSans-30" transform="translate(318.115234 0)"/>
      </g>
     </g>
    </g>
    <g id="ytick_11">
     <g id="line2d_24">
      <g>
       <use xlink:href="#m19e607cae3" x="79.279688" y="320.104555" style="stroke: #000000; stroke-width: 0.8"/>
      </g>
     </g>
     <g id="text_30">
      <!-- 200000 -->
      <g transform="translate(34.104688 323.903774) scale(0.1 -0.1)">
       <use xlink:href="#DejaVuSans-32"/>
       <use xlink:href="#DejaVuSans-30" transform="translate(63.623047 0)"/>
       <use xlink:href="#DejaVuSans-30" transform="translate(127.246094 0)"/>
       <use xlink:href="#DejaVuSans-30" transform="translate(190.869141 0)"/>
       <use xlink:href="#DejaVuSans-30" transform="translate(254.492188 0)"/>
       <use xlink:href="#DejaVuSans-30" transform="translate(318.115234 0)"/>
      </g>
     </g>
    </g>
    <g id="text_31">
     <!-- Energy Storage -->
     <g transform="translate(28.025 455.8575) rotate(-90) scale(0.1 -0.1)">
      <defs>
       <path id="DejaVuSans-45" d="M 628 4666 
L 3578 4666 
L 3578 4134 
L 1259 4134 
L 1259 2753 
L 3481 2753 
L 3481 2222 
L 1259 2222 
L 1259 531 
L 3634 531 
L 3634 0 
L 628 0 
L 628 4666 
z
" transform="scale(0.015625)"/>
       <path id="DejaVuSans-67" d="M 2906 1791 
Q 2906 2416 2648 2759 
Q 2391 3103 1925 3103 
Q 1463 3103 1205 2759 
Q 947 2416 947 1791 
Q 947 1169 1205 825 
Q 1463 481 1925 481 
Q 2391 481 2648 825 
Q 2906 1169 2906 1791 
z
M 3481 434 
Q 3481 -459 3084 -895 
Q 2688 -1331 1869 -1331 
Q 1566 -1331 1297 -1286 
Q 1028 -1241 775 -1147 
L 775 -588 
Q 1028 -725 1275 -790 
Q 1522 -856 1778 -856 
Q 2344 -856 2625 -561 
Q 2906 -266 2906 331 
L 2906 616 
Q 2728 306 2450 153 
Q 2172 0 1784 0 
Q 1141 0 747 490 
Q 353 981 353 1791 
Q 353 2603 747 3093 
Q 1141 3584 1784 3584 
Q 2172 3584 2450 3431 
Q 2728 3278 2906 2969 
L 2906 3500 
L 3481 3500 
L 3481 434 
z
" transform="scale(0.015625)"/>
       <path id="DejaVuSans-79" d="M 2059 -325 
Q 1816 -950 1584 -1140 
Q 1353 -1331 966 -1331 
L 506 -1331 
L 506 -850 
L 844 -850 
Q 1081 -850 1212 -737 
Q 1344 -625 1503 -206 
L 1606 56 
L 191 3500 
L 800 3500 
L 1894 763 
L 2988 3500 
L 3597 3500 
L 2059 -325 
z
" transform="scale(0.015625)"/>
       <path id="DejaVuSans-74" d="M 1172 4494 
L 1172 3500 
L 2356 3500 
L 2356 3053 
L 1172 3053 
L 1172 1153 
Q 1172 725 1289 603 
Q 1406 481 1766 481 
L 2356 481 
L 2356 0 
L 1766 0 
Q 1100 0 847 248 
Q 594 497 594 1153 
L 594 3053 
L 172 3053 
L 172 3500 
L 594 3500 
L 594 4494 
L 1172 4494 
z
" transform="scale(0.015625)"/>
      </defs>
      <use xlink:href="#DejaVuSans-45"/>
      <use xlink:href="#DejaVuSans-6e" transform="translate(63.183594 0)"/>
      <use xlink:href="#DejaVuSans-65" transform="translate(126.5625 0)"/>
      <use xlink:href="#DejaVuSans-72" transform="translate(188.085938 0)"/>
      <use xlink:href="#DejaVuSans-67" transform="translate(227.449219 0)"/>
      <use xlink:href="#DejaVuSans-79" transform="translate(290.925781 0)"/>
      <use xlink:href="#DejaVuSans-20" transform="translate(350.105469 0)"/>
      <use xlink:href="#DejaVuSans-53" transform="translate(381.892578 0)"/>
      <use xlink:href="#DejaVuSans-74" transform="translate(445.369141 0)"/>
      <use xlink:href="#DejaVuSans-6f" transform="translate(484.578125 0)"/>
      <use xlink:href="#DejaVuSans-72" transform="translate(545.759766 0)"/>
      <use xlink:href="#DejaVuSans-61" transform="translate(586.873047 0)"/>
      <use xlink:href="#DejaVuSans-67" transform="translate(648.152344 0)"/>
      <use xlink:href="#DejaVuSans-65" transform="translate(711.628906 0)"/>
     </g>
    </g>
   </g>
   <g id="line2d_25">
    <path d="M 114.076609 519.270852 
L 145.710174 519.270852 
L 177.343739 519.270852 
L 208.977304 519.270852 
L 240.610869 519.270852 
L 272.244434 519.270852 
L 303.877999 519.270852 
L 335.511564 519.270852 
L 367.145129 519.270852 
L 398.778694 516.871773 
L 430.412259 512.410885 
L 462.045824 519.270852 
L 493.679389 519.270852 
L 525.312954 519.270852 
L 556.946519 519.270852 
L 588.580084 315.125398 
L 620.213649 315.125398 
L 651.847214 316.222864 
L 683.480779 334.371036 
L 715.114344 335.852833 
L 746.747909 335.852833 
L 778.381474 335.852833 
L 810.015039 335.852833 
" clip-path="url(#pbc9256d532)" style="fill: none; stroke: #1f77b4; stroke-width: 1.5; stroke-linecap: square"/>
    <defs>
     <path id="ma6e41a4ea9" d="M 0 2 
C 0.530406 2 1.03916 1.789267 1.414214 1.414214 
C 1.789267 1.03916 2 0.530406 2 0 
C 2 -0.530406 1.789267 -1.03916 1.414214 -1.414214 
C 1.03916 -1.789267 0.530406 -2 0 -2 
C -0.530406 -2 -1.03916 -1.789267 -1.414214 -1.414214 
C -1.789267 -1.03916 -2 -0.530406 -2 0 
C -2 0.530406 -1.789267 1.03916 -1.414214 1.414214 
C -1.03916 1.789267 -0.530406 2 0 2 
z
" style="stroke: #1f77b4"/>
    </defs>
    <g clip-path="url(#pbc9256d532)">
     <use xlink:href="#ma6e41a4ea9" x="114.076609" y="519.270852" style="fill: #1f77b4; stroke: #1f77b4"/>
     <use xlink:href="#ma6e41a4ea9" x="145.710174" y="519.270852" style="fill: #1f77b4; stroke: #1f77b4"/>
     <use xlink:href="#ma6e41a4ea9" x="177.343739" y="519.270852" style="fill: #1f77b4; stroke: #1f77b4"/>
     <use xlink:href="#ma6e41a4ea9" x="208.977304" y="519.270852" style="fill: #1f77b4; stroke: #1f77b4"/>
     <use xlink:href="#ma6e41a4ea9" x="240.610869" y="519.270852" style="fill: #1f77b4; stroke: #1f77b4"/>
     <use xlink:href="#ma6e41a4ea9" x="272.244434" y="519.270852" style="fill: #1f77b4; stroke: #1f77b4"/>
     <use xlink:href="#ma6e41a4ea9" x="303.877999" y="519.270852" style="fill: #1f77b4; stroke: #1f77b4"/>
     <use xlink:href="#ma6e41a4ea9" x="335.511564" y="519.270852" style="fill: #1f77b4; stroke: #1f77b4"/>
     <use xlink:href="#ma6e41a4ea9" x="367.145129" y="519.270852" style="fill: #1f77b4; stroke: #1f77b4"/>
     <use xlink:href="#ma6e41a4ea9" x="398.778694" y="516.871773" style="fill: #1f77b4; stroke: #1f77b4"/>
     <use xlink:href="#ma6e41a4ea9" x="430.412259" y="512.410885" style="fill: #1f77b4; stroke: #1f77b4"/>
     <use xlink:href="#ma6e41a4ea9" x="462.045824" y="519.270852" style="fill: #1f77b4; stroke: #1f77b4"/>
     <use xlink:href="#ma6e41a4ea9" x="493.679389" y="519.270852" style="fill: #1f77b4; stroke: #1f77b4"/>
     <use xlink:href="#ma6e41a4ea9" x="525.312954" y="519.270852" style="fill: #1f77b4; stroke: #1f77b4"/>
     <use xlink:href="#ma6e41a4ea9" x="556.946519" y="519.270852" style="fill: #1f77b4; stroke: #1f77b4"/>
     <use xlink:href="#ma6e41a4ea9" x="588.580084" y="315.125398" style="fill: #1f77b4; stroke: #1f77b4"/>
     <use xlink:href="#ma6e41a4ea9" x="620.213649" y="315.125398" style="fill: #1f77b4; stroke: #1f77b4"/>
     <use xlink:href="#ma6e41a4ea9" x="651.847214" y="316.222864" style="fill: #1f77b4; stroke: #1f77b4"/>
     <use xlink:href="#ma6e41a4ea9" x="683.480779" y="334.371036" style="fill: #1f77b4; stroke: #1f77b4"/>
     <use xlink:href="#ma6e41a4ea9" x="715.114344" y="335.852833" style="fill: #1f77b4; stroke: #1f77b4"/>
     <use xlink:href="#ma6e41a4ea9" x="746.747909" y="335.852833" style="fill: #1f77b4; stroke: #1f77b4"/>
     <use xlink:href="#ma6e41a4ea9" x="778.381474" y="335.852833" style="fill: #1f77b4; stroke: #1f77b4"/>
     <use xlink:href="#ma6e41a4ea9" x="810.015039" y="335.852833" style="fill: #1f77b4; stroke: #1f77b4"/>
    </g>
   </g>
   <g id="line2d_26">
    <path d="M 79.279688 315.125398 
L 844.81196 315.125398 
" clip-path="url(#pbc9256d532)" style="fill: none; stroke-dasharray: 5.55,2.4; stroke-dashoffset: 0; stroke: #ff0000; stroke-width: 1.5"/>
   </g>
   <g id="patch_71">
    <path d="M 79.279688 529.478125 
L 79.279688 304.918125 
" style="fill: none; stroke: #000000; stroke-width: 0.8; stroke-linejoin: miter; stroke-linecap: square"/>
   </g>
   <g id="patch_72">
    <path d="M 844.81196 529.478125 
L 844.81196 304.918125 
" style="fill: none; stroke: #000000; stroke-width: 0.8; stroke-linejoin: miter; stroke-linecap: square"/>
   </g>
   <g id="patch_73">
    <path d="M 79.279688 529.478125 
L 844.81196 529.478125 
" style="fill: none; stroke: #000000; stroke-width: 0.8; stroke-linejoin: miter; stroke-linecap: square"/>
   </g>
   <g id="patch_74">
    <path d="M 79.279688 304.918125 
L 844.81196 304.918125 
" style="fill: none; stroke: #000000; stroke-width: 0.8; stroke-linejoin: miter; stroke-linecap: square"/>
   </g>
   <g id="text_32">
    <!-- Energy Storage Levels -->
    <g transform="translate(394.782074 298.918125) scale(0.12 -0.12)">
     <defs>
      <path id="DejaVuSans-4c" d="M 628 4666 
L 1259 4666 
L 1259 531 
L 3531 531 
L 3531 0 
L 628 0 
L 628 4666 
z
" transform="scale(0.015625)"/>
      <path id="DejaVuSans-76" d="M 191 3500 
L 800 3500 
L 1894 563 
L 2988 3500 
L 3597 3500 
L 2284 0 
L 1503 0 
L 191 3500 
z
" transform="scale(0.015625)"/>
      <path id="DejaVuSans-73" d="M 2834 3397 
L 2834 2853 
Q 2591 2978 2328 3040 
Q 2066 3103 1784 3103 
Q 1356 3103 1142 2972 
Q 928 2841 928 2578 
Q 928 2378 1081 2264 
Q 1234 2150 1697 2047 
L 1894 2003 
Q 2506 1872 2764 1633 
Q 3022 1394 3022 966 
Q 3022 478 2636 193 
Q 2250 -91 1575 -91 
Q 1294 -91 989 -36 
Q 684 19 347 128 
L 347 722 
Q 666 556 975 473 
Q 1284 391 1588 391 
Q 1994 391 2212 530 
Q 2431 669 2431 922 
Q 2431 1156 2273 1281 
Q 2116 1406 1581 1522 
L 1381 1569 
Q 847 1681 609 1914 
Q 372 2147 372 2553 
Q 372 3047 722 3315 
Q 1072 3584 1716 3584 
Q 2034 3584 2315 3537 
Q 2597 3491 2834 3397 
z
" transform="scale(0.015625)"/>
     </defs>
     <use xlink:href="#DejaVuSans-45"/>
     <use xlink:href="#DejaVuSans-6e" transform="translate(63.183594 0)"/>
     <use xlink:href="#DejaVuSans-65" transform="translate(126.5625 0)"/>
     <use xlink:href="#DejaVuSans-72" transform="translate(188.085938 0)"/>
     <use xlink:href="#DejaVuSans-67" transform="translate(227.449219 0)"/>
     <use xlink:href="#DejaVuSans-79" transform="translate(290.925781 0)"/>
     <use xlink:href="#DejaVuSans-20" transform="translate(350.105469 0)"/>
     <use xlink:href="#DejaVuSans-53" transform="translate(381.892578 0)"/>
     <use xlink:href="#DejaVuSans-74" transform="translate(445.369141 0)"/>
     <use xlink:href="#DejaVuSans-6f" transform="translate(484.578125 0)"/>
     <use xlink:href="#DejaVuSans-72" transform="translate(545.759766 0)"/>
     <use xlink:href="#DejaVuSans-61" transform="translate(586.873047 0)"/>
     <use xlink:href="#DejaVuSans-67" transform="translate(648.152344 0)"/>
     <use xlink:href="#DejaVuSans-65" transform="translate(711.628906 0)"/>
     <use xlink:href="#DejaVuSans-20" transform="translate(773.152344 0)"/>
     <use xlink:href="#DejaVuSans-4c" transform="translate(804.939453 0)"/>
     <use xlink:href="#DejaVuSans-65" transform="translate(858.902344 0)"/>
     <use xlink:href="#DejaVuSans-76" transform="translate(920.425781 0)"/>
     <use xlink:href="#DejaVuSans-65" transform="translate(979.605469 0)"/>
     <use xlink:href="#DejaVuSans-6c" transform="translate(1041.128906 0)"/>
     <use xlink:href="#DejaVuSans-73" transform="translate(1068.912109 0)"/>
    </g>
   </g>
   <g id="legend_2">
    <g id="patch_75">
     <path d="M 672.76196 524.478125 
L 837.81196 524.478125 
Q 839.81196 524.478125 839.81196 522.478125 
L 839.81196 508.8 
Q 839.81196 506.8 837.81196 506.8 
L 672.76196 506.8 
Q 670.76196 506.8 670.76196 508.8 
L 670.76196 522.478125 
Q 670.76196 524.478125 672.76196 524.478125 
z
" style="fill: #ffffff; opacity: 0.8; stroke: #cccccc; stroke-linejoin: miter"/>
    </g>
    <g id="line2d_27">
     <path d="M 674.76196 514.898437 
L 684.76196 514.898437 
L 694.76196 514.898437 
" style="fill: none; stroke-dasharray: 5.55,2.4; stroke-dashoffset: 0; stroke: #ff0000; stroke-width: 1.5"/>
    </g>
    <g id="text_33">
     <!-- Battery Capacity (205000) -->
     <g transform="translate(702.76196 518.398437) scale(0.1 -0.1)">
      <defs>
       <path id="DejaVuSans-42" d="M 1259 2228 
L 1259 519 
L 2272 519 
Q 2781 519 3026 730 
Q 3272 941 3272 1375 
Q 3272 1813 3026 2020 
Q 2781 2228 2272 2228 
L 1259 2228 
z
M 1259 4147 
L 1259 2741 
L 2194 2741 
Q 2656 2741 2882 2914 
Q 3109 3088 3109 3444 
Q 3109 3797 2882 3972 
Q 2656 4147 2194 4147 
L 1259 4147 
z
M 628 4666 
L 2241 4666 
Q 2963 4666 3353 4366 
Q 3744 4066 3744 3513 
Q 3744 3084 3544 2831 
Q 3344 2578 2956 2516 
Q 3422 2416 3680 2098 
Q 3938 1781 3938 1306 
Q 3938 681 3513 340 
Q 3088 0 2303 0 
L 628 0 
L 628 4666 
z
" transform="scale(0.015625)"/>
       <path id="DejaVuSans-43" d="M 4122 4306 
L 4122 3641 
Q 3803 3938 3442 4084 
Q 3081 4231 2675 4231 
Q 1875 4231 1450 3742 
Q 1025 3253 1025 2328 
Q 1025 1406 1450 917 
Q 1875 428 2675 428 
Q 3081 428 3442 575 
Q 3803 722 4122 1019 
L 4122 359 
Q 3791 134 3420 21 
Q 3050 -91 2638 -91 
Q 1578 -91 968 557 
Q 359 1206 359 2328 
Q 359 3453 968 4101 
Q 1578 4750 2638 4750 
Q 3056 4750 3426 4639 
Q 3797 4528 4122 4306 
z
" transform="scale(0.015625)"/>
       <path id="DejaVuSans-70" d="M 1159 525 
L 1159 -1331 
L 581 -1331 
L 581 3500 
L 1159 3500 
L 1159 2969 
Q 1341 3281 1617 3432 
Q 1894 3584 2278 3584 
Q 2916 3584 3314 3078 
Q 3713 2572 3713 1747 
Q 3713 922 3314 415 
Q 2916 -91 2278 -91 
Q 1894 -91 1617 61 
Q 1341 213 1159 525 
z
M 3116 1747 
Q 3116 2381 2855 2742 
Q 2594 3103 2138 3103 
Q 1681 3103 1420 2742 
Q 1159 2381 1159 1747 
Q 1159 1113 1420 752 
Q 1681 391 2138 391 
Q 2594 391 2855 752 
Q 3116 1113 3116 1747 
z
" transform="scale(0.015625)"/>
       <path id="DejaVuSans-28" d="M 1984 4856 
Q 1566 4138 1362 3434 
Q 1159 2731 1159 2009 
Q 1159 1288 1364 580 
Q 1569 -128 1984 -844 
L 1484 -844 
Q 1016 -109 783 600 
Q 550 1309 550 2009 
Q 550 2706 781 3412 
Q 1013 4119 1484 4856 
L 1984 4856 
z
" transform="scale(0.015625)"/>
       <path id="DejaVuSans-29" d="M 513 4856 
L 1013 4856 
Q 1481 4119 1714 3412 
Q 1947 2706 1947 2009 
Q 1947 1309 1714 600 
Q 1481 -109 1013 -844 
L 513 -844 
Q 928 -128 1133 580 
Q 1338 1288 1338 2009 
Q 1338 2731 1133 3434 
Q 928 4138 513 4856 
z
" transform="scale(0.015625)"/>
      </defs>
      <use xlink:href="#DejaVuSans-42"/>
      <use xlink:href="#DejaVuSans-61" transform="translate(68.603516 0)"/>
      <use xlink:href="#DejaVuSans-74" transform="translate(129.882812 0)"/>
      <use xlink:href="#DejaVuSans-74" transform="translate(169.091797 0)"/>
      <use xlink:href="#DejaVuSans-65" transform="translate(208.300781 0)"/>
      <use xlink:href="#DejaVuSans-72" transform="translate(269.824219 0)"/>
      <use xlink:href="#DejaVuSans-79" transform="translate(310.9375 0)"/>
      <use xlink:href="#DejaVuSans-20" transform="translate(370.117188 0)"/>
      <use xlink:href="#DejaVuSans-43" transform="translate(401.904297 0)"/>
      <use xlink:href="#DejaVuSans-61" transform="translate(471.728516 0)"/>
      <use xlink:href="#DejaVuSans-70" transform="translate(533.007812 0)"/>
      <use xlink:href="#DejaVuSans-61" transform="translate(596.484375 0)"/>
      <use xlink:href="#DejaVuSans-63" transform="translate(657.763672 0)"/>
      <use xlink:href="#DejaVuSans-69" transform="translate(712.744141 0)"/>
      <use xlink:href="#DejaVuSans-74" transform="translate(740.527344 0)"/>
      <use xlink:href="#DejaVuSans-79" transform="translate(779.736328 0)"/>
      <use xlink:href="#DejaVuSans-20" transform="translate(838.916016 0)"/>
      <use xlink:href="#DejaVuSans-28" transform="translate(870.703125 0)"/>
      <use xlink:href="#DejaVuSans-32" transform="translate(909.716797 0)"/>
      <use xlink:href="#DejaVuSans-30" transform="translate(973.339844 0)"/>
      <use xlink:href="#DejaVuSans-35" transform="translate(1036.962891 0)"/>
      <use xlink:href="#DejaVuSans-30" transform="translate(1100.585938 0)"/>
      <use xlink:href="#DejaVuSans-30" transform="translate(1164.208984 0)"/>
      <use xlink:href="#DejaVuSans-30" transform="translate(1227.832031 0)"/>
      <use xlink:href="#DejaVuSans-29" transform="translate(1291.455078 0)"/>
     </g>
    </g>
   </g>
  </g>
 </g>
 <defs>
  <clipPath id="pe5a8534c1d">
   <rect x="79.279688" y="22.318125" width="765.532273" height="224.56"/>
  </clipPath>
  <clipPath id="pbc9256d532">
   <rect x="79.279688" y="304.918125" width="765.532273" height="224.56"/>
  </clipPath>
 </defs>
</svg>
