<?xml version="1.0" encoding="utf-8" standalone="no"?>
<!DOCTYPE svg PUBLIC "-//W3C//DTD SVG 1.1//EN"
  "http://www.w3.org/Graphics/SVG/1.1/DTD/svg11.dtd">
<svg xmlns:xlink="http://www.w3.org/1999/xlink" width="856.409687pt" height="567.034375pt" viewBox="0 0 856.409687 567.034375" xmlns="http://www.w3.org/2000/svg" version="1.1">
 <metadata>
  <rdf:RDF xmlns:dc="http://purl.org/dc/elements/1.1/" xmlns:cc="http://creativecommons.org/ns#" xmlns:rdf="http://www.w3.org/1999/02/22-rdf-syntax-ns#">
   <cc:Work>
    <dc:type rdf:resource="http://purl.org/dc/dcmitype/StillImage"/>
    <dc:date>2025-05-29T09:59:04.142582</dc:date>
    <dc:format>image/svg+xml</dc:format>
    <dc:creator>
     <cc:Agent>
      <dc:title>Matplotlib v3.10.3, https://matplotlib.org/</dc:title>
     </cc:Agent>
    </dc:creator>
   </cc:Work>
  </rdf:RDF>
 </metadata>
 <defs>
  <style type="text/css">*{stroke-linejoin: round; stroke-linecap: butt}</style>
 </defs>
 <g id="figure_1">
  <g id="patch_1">
   <path d="M 0 567.034375 
L 856.409687 567.034375 
L 856.409687 0 
L 0 0 
z
" style="fill: #ffffff"/>
  </g>
  <g id="axes_1">
   <g id="patch_2">
    <path d="M 79.279688 246.878125 
L 849.209687 246.878125 
L 849.209687 22.318125 
L 79.279688 22.318125 
z
" style="fill: #ffffff"/>
   </g>
   <g id="patch_3">
    <path d="M 114.276506 246.878125 
L 129.492514 246.878125 
L 129.492514 211.233681 
L 114.276506 211.233681 
z
" clip-path="url(#p8280435a4d)" style="fill: #ff7f0e; stroke: #000000; stroke-width: 0.5; stroke-linejoin: miter"/>
   </g>
   <g id="patch_4">
    <path d="M 133.296516 246.878125 
L 148.512523 246.878125 
L 148.512523 211.233681 
L 133.296516 211.233681 
z
" clip-path="url(#p8280435a4d)" style="fill: #ff7f0e; stroke: #000000; stroke-width: 0.5; stroke-linejoin: miter"/>
   </g>
   <g id="patch_5">
    <path d="M 152.316525 246.878125 
L 167.532533 246.878125 
L 167.532533 211.233681 
L 152.316525 211.233681 
z
" clip-path="url(#p8280435a4d)" style="fill: #ff7f0e; stroke: #000000; stroke-width: 0.5; stroke-linejoin: miter"/>
   </g>
   <g id="patch_6">
    <path d="M 171.336535 246.878125 
L 186.552543 246.878125 
L 186.552543 211.233681 
L 171.336535 211.233681 
z
" clip-path="url(#p8280435a4d)" style="fill: #ff7f0e; stroke: #000000; stroke-width: 0.5; stroke-linejoin: miter"/>
   </g>
   <g id="patch_7">
    <path d="M 190.356545 246.878125 
L 205.572553 246.878125 
L 205.572553 211.233681 
L 190.356545 211.233681 
z
" clip-path="url(#p8280435a4d)" style="fill: #ff7f0e; stroke: #000000; stroke-width: 0.5; stroke-linejoin: miter"/>
   </g>
   <g id="patch_8">
    <path d="M 209.376555 246.878125 
L 224.592563 246.878125 
L 224.592563 211.233681 
L 209.376555 211.233681 
z
" clip-path="url(#p8280435a4d)" style="fill: #ff7f0e; stroke: #000000; stroke-width: 0.5; stroke-linejoin: miter"/>
   </g>
   <g id="patch_9">
    <path d="M 247.416575 246.878125 
L 262.632583 246.878125 
L 262.632583 211.233681 
L 247.416575 211.233681 
z
" clip-path="url(#p8280435a4d)" style="fill: #2ca02c; stroke: #000000; stroke-width: 0.5; stroke-linejoin: miter"/>
   </g>
   <g id="patch_10">
    <path d="M 266.436585 246.878125 
L 281.652593 246.878125 
L 281.652593 211.233681 
L 266.436585 211.233681 
z
" clip-path="url(#p8280435a4d)" style="fill: #2ca02c; stroke: #000000; stroke-width: 0.5; stroke-linejoin: miter"/>
   </g>
   <g id="patch_11">
    <path d="M 285.456595 246.878125 
L 300.672603 246.878125 
L 300.672603 211.233681 
L 285.456595 211.233681 
z
" clip-path="url(#p8280435a4d)" style="fill: #2ca02c; stroke: #000000; stroke-width: 0.5; stroke-linejoin: miter"/>
   </g>
   <g id="patch_12">
    <path d="M 304.476604 246.878125 
L 319.692612 246.878125 
L 319.692612 211.233681 
L 304.476604 211.233681 
z
" clip-path="url(#p8280435a4d)" style="fill: #2ca02c; stroke: #000000; stroke-width: 0.5; stroke-linejoin: miter"/>
   </g>
   <g id="patch_13">
    <path d="M 323.496614 246.878125 
L 338.712622 246.878125 
L 338.712622 211.233681 
L 323.496614 211.233681 
z
" clip-path="url(#p8280435a4d)" style="fill: #2ca02c; stroke: #000000; stroke-width: 0.5; stroke-linejoin: miter"/>
   </g>
   <g id="patch_14">
    <path d="M 342.516624 246.878125 
L 357.732632 246.878125 
L 357.732632 211.233681 
L 342.516624 211.233681 
z
" clip-path="url(#p8280435a4d)" style="fill: #2ca02c; stroke: #000000; stroke-width: 0.5; stroke-linejoin: miter"/>
   </g>
   <g id="patch_15">
    <path d="M 570.756743 246.878125 
L 585.972751 246.878125 
L 585.972751 211.233681 
L 570.756743 211.233681 
z
" clip-path="url(#p8280435a4d)" style="fill: #d62728; stroke: #000000; stroke-width: 0.5; stroke-linejoin: miter"/>
   </g>
   <g id="patch_16">
    <path d="M 589.776753 246.878125 
L 604.992761 246.878125 
L 604.992761 211.233681 
L 589.776753 211.233681 
z
" clip-path="url(#p8280435a4d)" style="fill: #d62728; stroke: #000000; stroke-width: 0.5; stroke-linejoin: miter"/>
   </g>
   <g id="patch_17">
    <path d="M 608.796763 246.878125 
L 624.012771 246.878125 
L 624.012771 211.233681 
L 608.796763 211.233681 
z
" clip-path="url(#p8280435a4d)" style="fill: #d62728; stroke: #000000; stroke-width: 0.5; stroke-linejoin: miter"/>
   </g>
   <g id="patch_18">
    <path d="M 627.816772 246.878125 
L 643.03278 246.878125 
L 643.03278 211.233681 
L 627.816772 211.233681 
z
" clip-path="url(#p8280435a4d)" style="fill: #d62728; stroke: #000000; stroke-width: 0.5; stroke-linejoin: miter"/>
   </g>
   <g id="patch_19">
    <path d="M 646.836782 246.878125 
L 662.05279 246.878125 
L 662.05279 211.233681 
L 646.836782 211.233681 
z
" clip-path="url(#p8280435a4d)" style="fill: #d62728; stroke: #000000; stroke-width: 0.5; stroke-linejoin: miter"/>
   </g>
   <g id="patch_20">
    <path d="M 665.856792 246.878125 
L 681.0728 246.878125 
L 681.0728 211.233681 
L 665.856792 211.233681 
z
" clip-path="url(#p8280435a4d)" style="fill: #d62728; stroke: #000000; stroke-width: 0.5; stroke-linejoin: miter"/>
   </g>
   <g id="patch_21">
    <path d="M 703.896812 246.878125 
L 719.11282 246.878125 
L 719.11282 211.233681 
L 703.896812 211.233681 
z
" clip-path="url(#p8280435a4d)" style="fill: #9467bd; stroke: #000000; stroke-width: 0.5; stroke-linejoin: miter"/>
   </g>
   <g id="patch_22">
    <path d="M 722.916822 246.878125 
L 738.13283 246.878125 
L 738.13283 211.233681 
L 722.916822 211.233681 
z
" clip-path="url(#p8280435a4d)" style="fill: #9467bd; stroke: #000000; stroke-width: 0.5; stroke-linejoin: miter"/>
   </g>
   <g id="patch_23">
    <path d="M 741.936832 246.878125 
L 757.15284 246.878125 
L 757.15284 211.233681 
L 741.936832 211.233681 
z
" clip-path="url(#p8280435a4d)" style="fill: #9467bd; stroke: #000000; stroke-width: 0.5; stroke-linejoin: miter"/>
   </g>
   <g id="patch_24">
    <path d="M 760.956842 246.878125 
L 776.17285 246.878125 
L 776.17285 211.233681 
L 760.956842 211.233681 
z
" clip-path="url(#p8280435a4d)" style="fill: #9467bd; stroke: #000000; stroke-width: 0.5; stroke-linejoin: miter"/>
   </g>
   <g id="patch_25">
    <path d="M 779.976852 246.878125 
L 795.192859 246.878125 
L 795.192859 211.233681 
L 779.976852 211.233681 
z
" clip-path="url(#p8280435a4d)" style="fill: #9467bd; stroke: #000000; stroke-width: 0.5; stroke-linejoin: miter"/>
   </g>
   <g id="patch_26">
    <path d="M 798.996861 246.878125 
L 814.212869 246.878125 
L 814.212869 211.233681 
L 798.996861 211.233681 
z
" clip-path="url(#p8280435a4d)" style="fill: #9467bd; stroke: #000000; stroke-width: 0.5; stroke-linejoin: miter"/>
   </g>
   <g id="patch_27">
    <path d="M 114.276506 211.233681 
L 129.492514 211.233681 
L 129.492514 175.589236 
L 114.276506 175.589236 
z
" clip-path="url(#p8280435a4d)" style="fill: #ff7f0e; stroke: #000000; stroke-width: 0.5; stroke-linejoin: miter"/>
   </g>
   <g id="patch_28">
    <path d="M 133.296516 211.233681 
L 148.512523 211.233681 
L 148.512523 175.589236 
L 133.296516 175.589236 
z
" clip-path="url(#p8280435a4d)" style="fill: #ff7f0e; stroke: #000000; stroke-width: 0.5; stroke-linejoin: miter"/>
   </g>
   <g id="patch_29">
    <path d="M 152.316525 211.233681 
L 167.532533 211.233681 
L 167.532533 175.589236 
L 152.316525 175.589236 
z
" clip-path="url(#p8280435a4d)" style="fill: #ff7f0e; stroke: #000000; stroke-width: 0.5; stroke-linejoin: miter"/>
   </g>
   <g id="patch_30">
    <path d="M 171.336535 211.233681 
L 186.552543 211.233681 
L 186.552543 175.589236 
L 171.336535 175.589236 
z
" clip-path="url(#p8280435a4d)" style="fill: #ff7f0e; stroke: #000000; stroke-width: 0.5; stroke-linejoin: miter"/>
   </g>
   <g id="patch_31">
    <path d="M 190.356545 211.233681 
L 205.572553 211.233681 
L 205.572553 175.589236 
L 190.356545 175.589236 
z
" clip-path="url(#p8280435a4d)" style="fill: #ff7f0e; stroke: #000000; stroke-width: 0.5; stroke-linejoin: miter"/>
   </g>
   <g id="patch_32">
    <path d="M 209.376555 211.233681 
L 224.592563 211.233681 
L 224.592563 175.589236 
L 209.376555 175.589236 
z
" clip-path="url(#p8280435a4d)" style="fill: #ff7f0e; stroke: #000000; stroke-width: 0.5; stroke-linejoin: miter"/>
   </g>
   <g id="patch_33">
    <path d="M 247.416575 211.233681 
L 262.632583 211.233681 
L 262.632583 175.589236 
L 247.416575 175.589236 
z
" clip-path="url(#p8280435a4d)" style="fill: #2ca02c; stroke: #000000; stroke-width: 0.5; stroke-linejoin: miter"/>
   </g>
   <g id="patch_34">
    <path d="M 266.436585 211.233681 
L 281.652593 211.233681 
L 281.652593 175.589236 
L 266.436585 175.589236 
z
" clip-path="url(#p8280435a4d)" style="fill: #2ca02c; stroke: #000000; stroke-width: 0.5; stroke-linejoin: miter"/>
   </g>
   <g id="patch_35">
    <path d="M 285.456595 211.233681 
L 300.672603 211.233681 
L 300.672603 175.589236 
L 285.456595 175.589236 
z
" clip-path="url(#p8280435a4d)" style="fill: #2ca02c; stroke: #000000; stroke-width: 0.5; stroke-linejoin: miter"/>
   </g>
   <g id="patch_36">
    <path d="M 304.476604 211.233681 
L 319.692612 211.233681 
L 319.692612 175.589236 
L 304.476604 175.589236 
z
" clip-path="url(#p8280435a4d)" style="fill: #2ca02c; stroke: #000000; stroke-width: 0.5; stroke-linejoin: miter"/>
   </g>
   <g id="patch_37">
    <path d="M 323.496614 211.233681 
L 338.712622 211.233681 
L 338.712622 175.589236 
L 323.496614 175.589236 
z
" clip-path="url(#p8280435a4d)" style="fill: #2ca02c; stroke: #000000; stroke-width: 0.5; stroke-linejoin: miter"/>
   </g>
   <g id="patch_38">
    <path d="M 342.516624 211.233681 
L 357.732632 211.233681 
L 357.732632 175.589236 
L 342.516624 175.589236 
z
" clip-path="url(#p8280435a4d)" style="fill: #2ca02c; stroke: #000000; stroke-width: 0.5; stroke-linejoin: miter"/>
   </g>
   <g id="patch_39">
    <path d="M 380.556644 211.233681 
L 395.772652 211.233681 
L 395.772652 175.589236 
L 380.556644 175.589236 
z
" clip-path="url(#p8280435a4d)" style="fill: #d62728; stroke: #000000; stroke-width: 0.5; stroke-linejoin: miter"/>
   </g>
   <g id="patch_40">
    <path d="M 399.576654 211.233681 
L 414.792662 211.233681 
L 414.792662 175.589236 
L 399.576654 175.589236 
z
" clip-path="url(#p8280435a4d)" style="fill: #d62728; stroke: #000000; stroke-width: 0.5; stroke-linejoin: miter"/>
   </g>
   <g id="patch_41">
    <path d="M 418.596664 211.233681 
L 433.812672 211.233681 
L 433.812672 175.589236 
L 418.596664 175.589236 
z
" clip-path="url(#p8280435a4d)" style="fill: #d62728; stroke: #000000; stroke-width: 0.5; stroke-linejoin: miter"/>
   </g>
   <g id="patch_42">
    <path d="M 437.616674 211.233681 
L 452.832682 211.233681 
L 452.832682 175.589236 
L 437.616674 175.589236 
z
" clip-path="url(#p8280435a4d)" style="fill: #d62728; stroke: #000000; stroke-width: 0.5; stroke-linejoin: miter"/>
   </g>
   <g id="patch_43">
    <path d="M 456.636684 211.233681 
L 471.852691 211.233681 
L 471.852691 175.589236 
L 456.636684 175.589236 
z
" clip-path="url(#p8280435a4d)" style="fill: #d62728; stroke: #000000; stroke-width: 0.5; stroke-linejoin: miter"/>
   </g>
   <g id="patch_44">
    <path d="M 475.656693 211.233681 
L 490.872701 211.233681 
L 490.872701 175.589236 
L 475.656693 175.589236 
z
" clip-path="url(#p8280435a4d)" style="fill: #d62728; stroke: #000000; stroke-width: 0.5; stroke-linejoin: miter"/>
   </g>
   <g id="patch_45">
    <path d="M 513.696713 211.233681 
L 528.912721 211.233681 
L 528.912721 175.589236 
L 513.696713 175.589236 
z
" clip-path="url(#p8280435a4d)" style="fill: #9467bd; stroke: #000000; stroke-width: 0.5; stroke-linejoin: miter"/>
   </g>
   <g id="patch_46">
    <path d="M 532.716723 211.233681 
L 547.932731 211.233681 
L 547.932731 175.589236 
L 532.716723 175.589236 
z
" clip-path="url(#p8280435a4d)" style="fill: #9467bd; stroke: #000000; stroke-width: 0.5; stroke-linejoin: miter"/>
   </g>
   <g id="patch_47">
    <path d="M 551.736733 211.233681 
L 566.952741 211.233681 
L 566.952741 175.589236 
L 551.736733 175.589236 
z
" clip-path="url(#p8280435a4d)" style="fill: #9467bd; stroke: #000000; stroke-width: 0.5; stroke-linejoin: miter"/>
   </g>
   <g id="patch_48">
    <path d="M 570.756743 211.233681 
L 585.972751 211.233681 
L 585.972751 175.589236 
L 570.756743 175.589236 
z
" clip-path="url(#p8280435a4d)" style="fill: #9467bd; stroke: #000000; stroke-width: 0.5; stroke-linejoin: miter"/>
   </g>
   <g id="patch_49">
    <path d="M 589.776753 211.233681 
L 604.992761 211.233681 
L 604.992761 175.589236 
L 589.776753 175.589236 
z
" clip-path="url(#p8280435a4d)" style="fill: #9467bd; stroke: #000000; stroke-width: 0.5; stroke-linejoin: miter"/>
   </g>
   <g id="patch_50">
    <path d="M 608.796763 211.233681 
L 624.012771 211.233681 
L 624.012771 175.589236 
L 608.796763 175.589236 
z
" clip-path="url(#p8280435a4d)" style="fill: #9467bd; stroke: #000000; stroke-width: 0.5; stroke-linejoin: miter"/>
   </g>
   <g id="patch_51">
    <path d="M 266.436585 175.589236 
L 281.652593 175.589236 
L 281.652593 139.944792 
L 266.436585 139.944792 
z
" clip-path="url(#p8280435a4d)" style="fill: #ff7f0e; stroke: #000000; stroke-width: 0.5; stroke-linejoin: miter"/>
   </g>
   <g id="patch_52">
    <path d="M 285.456595 175.589236 
L 300.672603 175.589236 
L 300.672603 139.944792 
L 285.456595 139.944792 
z
" clip-path="url(#p8280435a4d)" style="fill: #ff7f0e; stroke: #000000; stroke-width: 0.5; stroke-linejoin: miter"/>
   </g>
   <g id="patch_53">
    <path d="M 304.476604 175.589236 
L 319.692612 175.589236 
L 319.692612 139.944792 
L 304.476604 139.944792 
z
" clip-path="url(#p8280435a4d)" style="fill: #ff7f0e; stroke: #000000; stroke-width: 0.5; stroke-linejoin: miter"/>
   </g>
   <g id="patch_54">
    <path d="M 323.496614 175.589236 
L 338.712622 175.589236 
L 338.712622 139.944792 
L 323.496614 139.944792 
z
" clip-path="url(#p8280435a4d)" style="fill: #ff7f0e; stroke: #000000; stroke-width: 0.5; stroke-linejoin: miter"/>
   </g>
   <g id="patch_55">
    <path d="M 342.516624 175.589236 
L 357.732632 175.589236 
L 357.732632 139.944792 
L 342.516624 139.944792 
z
" clip-path="url(#p8280435a4d)" style="fill: #ff7f0e; stroke: #000000; stroke-width: 0.5; stroke-linejoin: miter"/>
   </g>
   <g id="patch_56">
    <path d="M 361.536634 175.589236 
L 376.752642 175.589236 
L 376.752642 139.944792 
L 361.536634 139.944792 
z
" clip-path="url(#p8280435a4d)" style="fill: #ff7f0e; stroke: #000000; stroke-width: 0.5; stroke-linejoin: miter"/>
   </g>
   <g id="patch_57">
    <path d="M 399.576654 175.589236 
L 414.792662 175.589236 
L 414.792662 139.944792 
L 399.576654 139.944792 
z
" clip-path="url(#p8280435a4d)" style="fill: #2ca02c; stroke: #000000; stroke-width: 0.5; stroke-linejoin: miter"/>
   </g>
   <g id="patch_58">
    <path d="M 418.596664 175.589236 
L 433.812672 175.589236 
L 433.812672 139.944792 
L 418.596664 139.944792 
z
" clip-path="url(#p8280435a4d)" style="fill: #2ca02c; stroke: #000000; stroke-width: 0.5; stroke-linejoin: miter"/>
   </g>
   <g id="patch_59">
    <path d="M 437.616674 175.589236 
L 452.832682 175.589236 
L 452.832682 139.944792 
L 437.616674 139.944792 
z
" clip-path="url(#p8280435a4d)" style="fill: #2ca02c; stroke: #000000; stroke-width: 0.5; stroke-linejoin: miter"/>
   </g>
   <g id="patch_60">
    <path d="M 570.756743 175.589236 
L 585.972751 175.589236 
L 585.972751 139.944792 
L 570.756743 139.944792 
z
" clip-path="url(#p8280435a4d)" style="fill: #2ca02c; stroke: #000000; stroke-width: 0.5; stroke-linejoin: miter"/>
   </g>
   <g id="patch_61">
    <path d="M 589.776753 175.589236 
L 604.992761 175.589236 
L 604.992761 139.944792 
L 589.776753 139.944792 
z
" clip-path="url(#p8280435a4d)" style="fill: #2ca02c; stroke: #000000; stroke-width: 0.5; stroke-linejoin: miter"/>
   </g>
   <g id="patch_62">
    <path d="M 608.796763 175.589236 
L 624.012771 175.589236 
L 624.012771 139.944792 
L 608.796763 139.944792 
z
" clip-path="url(#p8280435a4d)" style="fill: #2ca02c; stroke: #000000; stroke-width: 0.5; stroke-linejoin: miter"/>
   </g>
   <g id="patch_63">
    <path d="M 133.296516 139.944792 
L 148.512523 139.944792 
L 148.512523 104.300347 
L 133.296516 104.300347 
z
" clip-path="url(#p8280435a4d)" style="fill: #ff7f0e; stroke: #000000; stroke-width: 0.5; stroke-linejoin: miter"/>
   </g>
   <g id="patch_64">
    <path d="M 152.316525 139.944792 
L 167.532533 139.944792 
L 167.532533 104.300347 
L 152.316525 104.300347 
z
" clip-path="url(#p8280435a4d)" style="fill: #ff7f0e; stroke: #000000; stroke-width: 0.5; stroke-linejoin: miter"/>
   </g>
   <g id="patch_65">
    <path d="M 171.336535 139.944792 
L 186.552543 139.944792 
L 186.552543 104.300347 
L 171.336535 104.300347 
z
" clip-path="url(#p8280435a4d)" style="fill: #ff7f0e; stroke: #000000; stroke-width: 0.5; stroke-linejoin: miter"/>
   </g>
   <g id="patch_66">
    <path d="M 190.356545 139.944792 
L 205.572553 139.944792 
L 205.572553 104.300347 
L 190.356545 104.300347 
z
" clip-path="url(#p8280435a4d)" style="fill: #ff7f0e; stroke: #000000; stroke-width: 0.5; stroke-linejoin: miter"/>
   </g>
   <g id="patch_67">
    <path d="M 209.376555 139.944792 
L 224.592563 139.944792 
L 224.592563 104.300347 
L 209.376555 104.300347 
z
" clip-path="url(#p8280435a4d)" style="fill: #ff7f0e; stroke: #000000; stroke-width: 0.5; stroke-linejoin: miter"/>
   </g>
   <g id="patch_68">
    <path d="M 228.396565 139.944792 
L 243.612573 139.944792 
L 243.612573 104.300347 
L 228.396565 104.300347 
z
" clip-path="url(#p8280435a4d)" style="fill: #ff7f0e; stroke: #000000; stroke-width: 0.5; stroke-linejoin: miter"/>
   </g>
   <g id="patch_69">
    <path d="M 456.636684 139.944792 
L 471.852691 139.944792 
L 471.852691 104.300347 
L 456.636684 104.300347 
z
" clip-path="url(#p8280435a4d)" style="fill: #2ca02c; stroke: #000000; stroke-width: 0.5; stroke-linejoin: miter"/>
   </g>
   <g id="patch_70">
    <path d="M 475.656693 139.944792 
L 490.872701 139.944792 
L 490.872701 104.300347 
L 475.656693 104.300347 
z
" clip-path="url(#p8280435a4d)" style="fill: #2ca02c; stroke: #000000; stroke-width: 0.5; stroke-linejoin: miter"/>
   </g>
   <g id="patch_71">
    <path d="M 494.676703 139.944792 
L 509.892711 139.944792 
L 509.892711 104.300347 
L 494.676703 104.300347 
z
" clip-path="url(#p8280435a4d)" style="fill: #2ca02c; stroke: #000000; stroke-width: 0.5; stroke-linejoin: miter"/>
   </g>
   <g id="patch_72">
    <path d="M 513.696713 139.944792 
L 528.912721 139.944792 
L 528.912721 104.300347 
L 513.696713 104.300347 
z
" clip-path="url(#p8280435a4d)" style="fill: #2ca02c; stroke: #000000; stroke-width: 0.5; stroke-linejoin: miter"/>
   </g>
   <g id="patch_73">
    <path d="M 532.716723 139.944792 
L 547.932731 139.944792 
L 547.932731 104.300347 
L 532.716723 104.300347 
z
" clip-path="url(#p8280435a4d)" style="fill: #2ca02c; stroke: #000000; stroke-width: 0.5; stroke-linejoin: miter"/>
   </g>
   <g id="patch_74">
    <path d="M 551.736733 139.944792 
L 566.952741 139.944792 
L 566.952741 104.300347 
L 551.736733 104.300347 
z
" clip-path="url(#p8280435a4d)" style="fill: #2ca02c; stroke: #000000; stroke-width: 0.5; stroke-linejoin: miter"/>
   </g>
   <g id="patch_75">
    <path d="M 114.276506 104.300347 
L 129.492514 104.300347 
L 129.492514 68.655903 
L 114.276506 68.655903 
z
" clip-path="url(#p8280435a4d)" style="fill: #ff7f0e; stroke: #000000; stroke-width: 0.5; stroke-linejoin: miter"/>
   </g>
   <g id="patch_76">
    <path d="M 133.296516 104.300347 
L 148.512523 104.300347 
L 148.512523 68.655903 
L 133.296516 68.655903 
z
" clip-path="url(#p8280435a4d)" style="fill: #ff7f0e; stroke: #000000; stroke-width: 0.5; stroke-linejoin: miter"/>
   </g>
   <g id="patch_77">
    <path d="M 152.316525 104.300347 
L 167.532533 104.300347 
L 167.532533 68.655903 
L 152.316525 68.655903 
z
" clip-path="url(#p8280435a4d)" style="fill: #ff7f0e; stroke: #000000; stroke-width: 0.5; stroke-linejoin: miter"/>
   </g>
   <g id="patch_78">
    <path d="M 171.336535 104.300347 
L 186.552543 104.300347 
L 186.552543 68.655903 
L 171.336535 68.655903 
z
" clip-path="url(#p8280435a4d)" style="fill: #ff7f0e; stroke: #000000; stroke-width: 0.5; stroke-linejoin: miter"/>
   </g>
   <g id="patch_79">
    <path d="M 190.356545 104.300347 
L 205.572553 104.300347 
L 205.572553 68.655903 
L 190.356545 68.655903 
z
" clip-path="url(#p8280435a4d)" style="fill: #ff7f0e; stroke: #000000; stroke-width: 0.5; stroke-linejoin: miter"/>
   </g>
   <g id="patch_80">
    <path d="M 209.376555 104.300347 
L 224.592563 104.300347 
L 224.592563 68.655903 
L 209.376555 68.655903 
z
" clip-path="url(#p8280435a4d)" style="fill: #ff7f0e; stroke: #000000; stroke-width: 0.5; stroke-linejoin: miter"/>
   </g>
   <g id="patch_81">
    <path d="M 228.396565 104.300347 
L 243.612573 104.300347 
L 243.612573 68.655903 
L 228.396565 68.655903 
z
" clip-path="url(#p8280435a4d)" style="fill: #ff7f0e; stroke: #000000; stroke-width: 0.5; stroke-linejoin: miter"/>
   </g>
   <g id="patch_82">
    <path d="M 247.416575 104.300347 
L 262.632583 104.300347 
L 262.632583 68.655903 
L 247.416575 68.655903 
z
" clip-path="url(#p8280435a4d)" style="fill: #ff7f0e; stroke: #000000; stroke-width: 0.5; stroke-linejoin: miter"/>
   </g>
   <g id="patch_83">
    <path d="M 266.436585 104.300347 
L 281.652593 104.300347 
L 281.652593 68.655903 
L 266.436585 68.655903 
z
" clip-path="url(#p8280435a4d)" style="fill: #ff7f0e; stroke: #000000; stroke-width: 0.5; stroke-linejoin: miter"/>
   </g>
   <g id="patch_84">
    <path d="M 285.456595 104.300347 
L 300.672603 104.300347 
L 300.672603 68.655903 
L 285.456595 68.655903 
z
" clip-path="url(#p8280435a4d)" style="fill: #ff7f0e; stroke: #000000; stroke-width: 0.5; stroke-linejoin: miter"/>
   </g>
   <g id="patch_85">
    <path d="M 304.476604 104.300347 
L 319.692612 104.300347 
L 319.692612 68.655903 
L 304.476604 68.655903 
z
" clip-path="url(#p8280435a4d)" style="fill: #ff7f0e; stroke: #000000; stroke-width: 0.5; stroke-linejoin: miter"/>
   </g>
   <g id="patch_86">
    <path d="M 323.496614 104.300347 
L 338.712622 104.300347 
L 338.712622 68.655903 
L 323.496614 68.655903 
z
" clip-path="url(#p8280435a4d)" style="fill: #ff7f0e; stroke: #000000; stroke-width: 0.5; stroke-linejoin: miter"/>
   </g>
   <g id="patch_87">
    <path d="M 380.556644 104.300347 
L 395.772652 104.300347 
L 395.772652 68.655903 
L 380.556644 68.655903 
z
" clip-path="url(#p8280435a4d)" style="fill: #2ca02c; stroke: #000000; stroke-width: 0.5; stroke-linejoin: miter"/>
   </g>
   <g id="patch_88">
    <path d="M 399.576654 104.300347 
L 414.792662 104.300347 
L 414.792662 68.655903 
L 399.576654 68.655903 
z
" clip-path="url(#p8280435a4d)" style="fill: #2ca02c; stroke: #000000; stroke-width: 0.5; stroke-linejoin: miter"/>
   </g>
   <g id="patch_89">
    <path d="M 418.596664 104.300347 
L 433.812672 104.300347 
L 433.812672 68.655903 
L 418.596664 68.655903 
z
" clip-path="url(#p8280435a4d)" style="fill: #2ca02c; stroke: #000000; stroke-width: 0.5; stroke-linejoin: miter"/>
   </g>
   <g id="patch_90">
    <path d="M 437.616674 104.300347 
L 452.832682 104.300347 
L 452.832682 68.655903 
L 437.616674 68.655903 
z
" clip-path="url(#p8280435a4d)" style="fill: #2ca02c; stroke: #000000; stroke-width: 0.5; stroke-linejoin: miter"/>
   </g>
   <g id="patch_91">
    <path d="M 456.636684 104.300347 
L 471.852691 104.300347 
L 471.852691 68.655903 
L 456.636684 68.655903 
z
" clip-path="url(#p8280435a4d)" style="fill: #2ca02c; stroke: #000000; stroke-width: 0.5; stroke-linejoin: miter"/>
   </g>
   <g id="patch_92">
    <path d="M 475.656693 104.300347 
L 490.872701 104.300347 
L 490.872701 68.655903 
L 475.656693 68.655903 
z
" clip-path="url(#p8280435a4d)" style="fill: #2ca02c; stroke: #000000; stroke-width: 0.5; stroke-linejoin: miter"/>
   </g>
   <g id="patch_93">
    <path d="M 494.676703 104.300347 
L 509.892711 104.300347 
L 509.892711 68.655903 
L 494.676703 68.655903 
z
" clip-path="url(#p8280435a4d)" style="fill: #2ca02c; stroke: #000000; stroke-width: 0.5; stroke-linejoin: miter"/>
   </g>
   <g id="patch_94">
    <path d="M 646.836782 104.300347 
L 662.05279 104.300347 
L 662.05279 68.655903 
L 646.836782 68.655903 
z
" clip-path="url(#p8280435a4d)" style="fill: #2ca02c; stroke: #000000; stroke-width: 0.5; stroke-linejoin: miter"/>
   </g>
   <g id="patch_95">
    <path d="M 665.856792 104.300347 
L 681.0728 104.300347 
L 681.0728 68.655903 
L 665.856792 68.655903 
z
" clip-path="url(#p8280435a4d)" style="fill: #2ca02c; stroke: #000000; stroke-width: 0.5; stroke-linejoin: miter"/>
   </g>
   <g id="patch_96">
    <path d="M 684.876802 104.300347 
L 700.09281 104.300347 
L 700.09281 68.655903 
L 684.876802 68.655903 
z
" clip-path="url(#p8280435a4d)" style="fill: #2ca02c; stroke: #000000; stroke-width: 0.5; stroke-linejoin: miter"/>
   </g>
   <g id="patch_97">
    <path d="M 703.896812 104.300347 
L 719.11282 104.300347 
L 719.11282 68.655903 
L 703.896812 68.655903 
z
" clip-path="url(#p8280435a4d)" style="fill: #2ca02c; stroke: #000000; stroke-width: 0.5; stroke-linejoin: miter"/>
   </g>
   <g id="patch_98">
    <path d="M 722.916822 104.300347 
L 738.13283 104.300347 
L 738.13283 68.655903 
L 722.916822 68.655903 
z
" clip-path="url(#p8280435a4d)" style="fill: #2ca02c; stroke: #000000; stroke-width: 0.5; stroke-linejoin: miter"/>
   </g>
   <g id="patch_99">
    <path d="M 114.276506 68.655903 
L 129.492514 68.655903 
L 129.492514 33.011458 
L 114.276506 33.011458 
z
" clip-path="url(#p8280435a4d)" style="fill: #ff7f0e; stroke: #000000; stroke-width: 0.5; stroke-linejoin: miter"/>
   </g>
   <g id="patch_100">
    <path d="M 133.296516 68.655903 
L 148.512523 68.655903 
L 148.512523 33.011458 
L 133.296516 33.011458 
z
" clip-path="url(#p8280435a4d)" style="fill: #ff7f0e; stroke: #000000; stroke-width: 0.5; stroke-linejoin: miter"/>
   </g>
   <g id="patch_101">
    <path d="M 152.316525 68.655903 
L 167.532533 68.655903 
L 167.532533 33.011458 
L 152.316525 33.011458 
z
" clip-path="url(#p8280435a4d)" style="fill: #ff7f0e; stroke: #000000; stroke-width: 0.5; stroke-linejoin: miter"/>
   </g>
   <g id="patch_102">
    <path d="M 171.336535 68.655903 
L 186.552543 68.655903 
L 186.552543 33.011458 
L 171.336535 33.011458 
z
" clip-path="url(#p8280435a4d)" style="fill: #ff7f0e; stroke: #000000; stroke-width: 0.5; stroke-linejoin: miter"/>
   </g>
   <g id="patch_103">
    <path d="M 190.356545 68.655903 
L 205.572553 68.655903 
L 205.572553 33.011458 
L 190.356545 33.011458 
z
" clip-path="url(#p8280435a4d)" style="fill: #ff7f0e; stroke: #000000; stroke-width: 0.5; stroke-linejoin: miter"/>
   </g>
   <g id="patch_104">
    <path d="M 209.376555 68.655903 
L 224.592563 68.655903 
L 224.592563 33.011458 
L 209.376555 33.011458 
z
" clip-path="url(#p8280435a4d)" style="fill: #ff7f0e; stroke: #000000; stroke-width: 0.5; stroke-linejoin: miter"/>
   </g>
   <g id="patch_105">
    <path d="M 228.396565 68.655903 
L 243.612573 68.655903 
L 243.612573 33.011458 
L 228.396565 33.011458 
z
" clip-path="url(#p8280435a4d)" style="fill: #ff7f0e; stroke: #000000; stroke-width: 0.5; stroke-linejoin: miter"/>
   </g>
   <g id="patch_106">
    <path d="M 247.416575 68.655903 
L 262.632583 68.655903 
L 262.632583 33.011458 
L 247.416575 33.011458 
z
" clip-path="url(#p8280435a4d)" style="fill: #ff7f0e; stroke: #000000; stroke-width: 0.5; stroke-linejoin: miter"/>
   </g>
   <g id="patch_107">
    <path d="M 266.436585 68.655903 
L 281.652593 68.655903 
L 281.652593 33.011458 
L 266.436585 33.011458 
z
" clip-path="url(#p8280435a4d)" style="fill: #ff7f0e; stroke: #000000; stroke-width: 0.5; stroke-linejoin: miter"/>
   </g>
   <g id="patch_108">
    <path d="M 285.456595 68.655903 
L 300.672603 68.655903 
L 300.672603 33.011458 
L 285.456595 33.011458 
z
" clip-path="url(#p8280435a4d)" style="fill: #ff7f0e; stroke: #000000; stroke-width: 0.5; stroke-linejoin: miter"/>
   </g>
   <g id="patch_109">
    <path d="M 304.476604 68.655903 
L 319.692612 68.655903 
L 319.692612 33.011458 
L 304.476604 33.011458 
z
" clip-path="url(#p8280435a4d)" style="fill: #ff7f0e; stroke: #000000; stroke-width: 0.5; stroke-linejoin: miter"/>
   </g>
   <g id="patch_110">
    <path d="M 323.496614 68.655903 
L 338.712622 68.655903 
L 338.712622 33.011458 
L 323.496614 33.011458 
z
" clip-path="url(#p8280435a4d)" style="fill: #ff7f0e; stroke: #000000; stroke-width: 0.5; stroke-linejoin: miter"/>
   </g>
   <g id="patch_111">
    <path d="M 494.676703 68.655903 
L 509.892711 68.655903 
L 509.892711 33.011458 
L 494.676703 33.011458 
z
" clip-path="url(#p8280435a4d)" style="fill: #2ca02c; stroke: #000000; stroke-width: 0.5; stroke-linejoin: miter"/>
   </g>
   <g id="patch_112">
    <path d="M 513.696713 68.655903 
L 528.912721 68.655903 
L 528.912721 33.011458 
L 513.696713 33.011458 
z
" clip-path="url(#p8280435a4d)" style="fill: #2ca02c; stroke: #000000; stroke-width: 0.5; stroke-linejoin: miter"/>
   </g>
   <g id="patch_113">
    <path d="M 532.716723 68.655903 
L 547.932731 68.655903 
L 547.932731 33.011458 
L 532.716723 33.011458 
z
" clip-path="url(#p8280435a4d)" style="fill: #2ca02c; stroke: #000000; stroke-width: 0.5; stroke-linejoin: miter"/>
   </g>
   <g id="patch_114">
    <path d="M 551.736733 68.655903 
L 566.952741 68.655903 
L 566.952741 33.011458 
L 551.736733 33.011458 
z
" clip-path="url(#p8280435a4d)" style="fill: #2ca02c; stroke: #000000; stroke-width: 0.5; stroke-linejoin: miter"/>
   </g>
   <g id="patch_115">
    <path d="M 570.756743 68.655903 
L 585.972751 68.655903 
L 585.972751 33.011458 
L 570.756743 33.011458 
z
" clip-path="url(#p8280435a4d)" style="fill: #2ca02c; stroke: #000000; stroke-width: 0.5; stroke-linejoin: miter"/>
   </g>
   <g id="patch_116">
    <path d="M 589.776753 68.655903 
L 604.992761 68.655903 
L 604.992761 33.011458 
L 589.776753 33.011458 
z
" clip-path="url(#p8280435a4d)" style="fill: #2ca02c; stroke: #000000; stroke-width: 0.5; stroke-linejoin: miter"/>
   </g>
   <g id="patch_117">
    <path d="M 608.796763 68.655903 
L 624.012771 68.655903 
L 624.012771 33.011458 
L 608.796763 33.011458 
z
" clip-path="url(#p8280435a4d)" style="fill: #2ca02c; stroke: #000000; stroke-width: 0.5; stroke-linejoin: miter"/>
   </g>
   <g id="patch_118">
    <path d="M 627.816772 68.655903 
L 643.03278 68.655903 
L 643.03278 33.011458 
L 627.816772 33.011458 
z
" clip-path="url(#p8280435a4d)" style="fill: #2ca02c; stroke: #000000; stroke-width: 0.5; stroke-linejoin: miter"/>
   </g>
   <g id="patch_119">
    <path d="M 646.836782 68.655903 
L 662.05279 68.655903 
L 662.05279 33.011458 
L 646.836782 33.011458 
z
" clip-path="url(#p8280435a4d)" style="fill: #2ca02c; stroke: #000000; stroke-width: 0.5; stroke-linejoin: miter"/>
   </g>
   <g id="patch_120">
    <path d="M 665.856792 68.655903 
L 681.0728 68.655903 
L 681.0728 33.011458 
L 665.856792 33.011458 
z
" clip-path="url(#p8280435a4d)" style="fill: #2ca02c; stroke: #000000; stroke-width: 0.5; stroke-linejoin: miter"/>
   </g>
   <g id="patch_121">
    <path d="M 684.876802 68.655903 
L 700.09281 68.655903 
L 700.09281 33.011458 
L 684.876802 33.011458 
z
" clip-path="url(#p8280435a4d)" style="fill: #2ca02c; stroke: #000000; stroke-width: 0.5; stroke-linejoin: miter"/>
   </g>
   <g id="patch_122">
    <path d="M 703.896812 68.655903 
L 719.11282 68.655903 
L 719.11282 33.011458 
L 703.896812 33.011458 
z
" clip-path="url(#p8280435a4d)" style="fill: #2ca02c; stroke: #000000; stroke-width: 0.5; stroke-linejoin: miter"/>
   </g>
   <g id="matplotlib.axis_1">
    <g id="xtick_1">
     <g id="line2d_1">
      <defs>
       <path id="mf16fd876a0" d="M 0 0 
L 0 3.5 
" style="stroke: #000000; stroke-width: 0.8"/>
      </defs>
      <g>
       <use xlink:href="#mf16fd876a0" x="102.8645" y="246.878125" style="stroke: #000000; stroke-width: 0.8"/>
      </g>
     </g>
     <g id="text_1">
      <!-- 10 -->
      <g transform="translate(96.502 261.476562) scale(0.1 -0.1)">
       <defs>
        <path id="DejaVuSans-31" d="M 794 531 
L 1825 531 
L 1825 4091 
L 703 3866 
L 703 4441 
L 1819 4666 
L 2450 4666 
L 2450 531 
L 3481 531 
L 3481 0 
L 794 0 
L 794 531 
z
" transform="scale(0.015625)"/>
        <path id="DejaVuSans-30" d="M 2034 4250 
Q 1547 4250 1301 3770 
Q 1056 3291 1056 2328 
Q 1056 1369 1301 889 
Q 1547 409 2034 409 
Q 2525 409 2770 889 
Q 3016 1369 3016 2328 
Q 3016 3291 2770 3770 
Q 2525 4250 2034 4250 
z
M 2034 4750 
Q 2819 4750 3233 4129 
Q 3647 3509 3647 2328 
Q 3647 1150 3233 529 
Q 2819 -91 2034 -91 
Q 1250 -91 836 529 
Q 422 1150 422 2328 
Q 422 3509 836 4129 
Q 1250 4750 2034 4750 
z
" transform="scale(0.015625)"/>
       </defs>
       <use xlink:href="#DejaVuSans-31"/>
       <use xlink:href="#DejaVuSans-30" transform="translate(63.623047 0)"/>
      </g>
     </g>
    </g>
    <g id="xtick_2">
     <g id="line2d_2">
      <g>
       <use xlink:href="#mf16fd876a0" x="197.964549" y="246.878125" style="stroke: #000000; stroke-width: 0.8"/>
      </g>
     </g>
     <g id="text_2">
      <!-- 15 -->
      <g transform="translate(191.602049 261.476562) scale(0.1 -0.1)">
       <defs>
        <path id="DejaVuSans-35" d="M 691 4666 
L 3169 4666 
L 3169 4134 
L 1269 4134 
L 1269 2991 
Q 1406 3038 1543 3061 
Q 1681 3084 1819 3084 
Q 2600 3084 3056 2656 
Q 3513 2228 3513 1497 
Q 3513 744 3044 326 
Q 2575 -91 1722 -91 
Q 1428 -91 1123 -41 
Q 819 9 494 109 
L 494 744 
Q 775 591 1075 516 
Q 1375 441 1709 441 
Q 2250 441 2565 725 
Q 2881 1009 2881 1497 
Q 2881 1984 2565 2268 
Q 2250 2553 1709 2553 
Q 1456 2553 1204 2497 
Q 953 2441 691 2322 
L 691 4666 
z
" transform="scale(0.015625)"/>
       </defs>
       <use xlink:href="#DejaVuSans-31"/>
       <use xlink:href="#DejaVuSans-35" transform="translate(63.623047 0)"/>
      </g>
     </g>
    </g>
    <g id="xtick_3">
     <g id="line2d_3">
      <g>
       <use xlink:href="#mf16fd876a0" x="293.064599" y="246.878125" style="stroke: #000000; stroke-width: 0.8"/>
      </g>
     </g>
     <g id="text_3">
      <!-- 20 -->
      <g transform="translate(286.702099 261.476562) scale(0.1 -0.1)">
       <defs>
        <path id="DejaVuSans-32" d="M 1228 531 
L 3431 531 
L 3431 0 
L 469 0 
L 469 531 
Q 828 903 1448 1529 
Q 2069 2156 2228 2338 
Q 2531 2678 2651 2914 
Q 2772 3150 2772 3378 
Q 2772 3750 2511 3984 
Q 2250 4219 1831 4219 
Q 1534 4219 1204 4116 
Q 875 4013 500 3803 
L 500 4441 
Q 881 4594 1212 4672 
Q 1544 4750 1819 4750 
Q 2544 4750 2975 4387 
Q 3406 4025 3406 3419 
Q 3406 3131 3298 2873 
Q 3191 2616 2906 2266 
Q 2828 2175 2409 1742 
Q 1991 1309 1228 531 
z
" transform="scale(0.015625)"/>
       </defs>
       <use xlink:href="#DejaVuSans-32"/>
       <use xlink:href="#DejaVuSans-30" transform="translate(63.623047 0)"/>
      </g>
     </g>
    </g>
    <g id="xtick_4">
     <g id="line2d_4">
      <g>
       <use xlink:href="#mf16fd876a0" x="388.164648" y="246.878125" style="stroke: #000000; stroke-width: 0.8"/>
      </g>
     </g>
     <g id="text_4">
      <!-- 25 -->
      <g transform="translate(381.802148 261.476562) scale(0.1 -0.1)">
       <use xlink:href="#DejaVuSans-32"/>
       <use xlink:href="#DejaVuSans-35" transform="translate(63.623047 0)"/>
      </g>
     </g>
    </g>
    <g id="xtick_5">
     <g id="line2d_5">
      <g>
       <use xlink:href="#mf16fd876a0" x="483.264697" y="246.878125" style="stroke: #000000; stroke-width: 0.8"/>
      </g>
     </g>
     <g id="text_5">
      <!-- 30 -->
      <g transform="translate(476.902197 261.476562) scale(0.1 -0.1)">
       <defs>
        <path id="DejaVuSans-33" d="M 2597 2516 
Q 3050 2419 3304 2112 
Q 3559 1806 3559 1356 
Q 3559 666 3084 287 
Q 2609 -91 1734 -91 
Q 1441 -91 1130 -33 
Q 819 25 488 141 
L 488 750 
Q 750 597 1062 519 
Q 1375 441 1716 441 
Q 2309 441 2620 675 
Q 2931 909 2931 1356 
Q 2931 1769 2642 2001 
Q 2353 2234 1838 2234 
L 1294 2234 
L 1294 2753 
L 1863 2753 
Q 2328 2753 2575 2939 
Q 2822 3125 2822 3475 
Q 2822 3834 2567 4026 
Q 2313 4219 1838 4219 
Q 1578 4219 1281 4162 
Q 984 4106 628 3988 
L 628 4550 
Q 988 4650 1302 4700 
Q 1616 4750 1894 4750 
Q 2613 4750 3031 4423 
Q 3450 4097 3450 3541 
Q 3450 3153 3228 2886 
Q 3006 2619 2597 2516 
z
" transform="scale(0.015625)"/>
       </defs>
       <use xlink:href="#DejaVuSans-33"/>
       <use xlink:href="#DejaVuSans-30" transform="translate(63.623047 0)"/>
      </g>
     </g>
    </g>
    <g id="xtick_6">
     <g id="line2d_6">
      <g>
       <use xlink:href="#mf16fd876a0" x="578.364747" y="246.878125" style="stroke: #000000; stroke-width: 0.8"/>
      </g>
     </g>
     <g id="text_6">
      <!-- 35 -->
      <g transform="translate(572.002247 261.476562) scale(0.1 -0.1)">
       <use xlink:href="#DejaVuSans-33"/>
       <use xlink:href="#DejaVuSans-35" transform="translate(63.623047 0)"/>
      </g>
     </g>
    </g>
    <g id="xtick_7">
     <g id="line2d_7">
      <g>
       <use xlink:href="#mf16fd876a0" x="673.464796" y="246.878125" style="stroke: #000000; stroke-width: 0.8"/>
      </g>
     </g>
     <g id="text_7">
      <!-- 40 -->
      <g transform="translate(667.102296 261.476562) scale(0.1 -0.1)">
       <defs>
        <path id="DejaVuSans-34" d="M 2419 4116 
L 825 1625 
L 2419 1625 
L 2419 4116 
z
M 2253 4666 
L 3047 4666 
L 3047 1625 
L 3713 1625 
L 3713 1100 
L 3047 1100 
L 3047 0 
L 2419 0 
L 2419 1100 
L 313 1100 
L 313 1709 
L 2253 4666 
z
" transform="scale(0.015625)"/>
       </defs>
       <use xlink:href="#DejaVuSans-34"/>
       <use xlink:href="#DejaVuSans-30" transform="translate(63.623047 0)"/>
      </g>
     </g>
    </g>
    <g id="xtick_8">
     <g id="line2d_8">
      <g>
       <use xlink:href="#mf16fd876a0" x="768.564846" y="246.878125" style="stroke: #000000; stroke-width: 0.8"/>
      </g>
     </g>
     <g id="text_8">
      <!-- 45 -->
      <g transform="translate(762.202346 261.476562) scale(0.1 -0.1)">
       <use xlink:href="#DejaVuSans-34"/>
       <use xlink:href="#DejaVuSans-35" transform="translate(63.623047 0)"/>
      </g>
     </g>
    </g>
    <g id="text_9">
     <!-- Time Period -->
     <g transform="translate(434.83375 275.154687) scale(0.1 -0.1)">
      <defs>
       <path id="DejaVuSans-54" d="M -19 4666 
L 3928 4666 
L 3928 4134 
L 2272 4134 
L 2272 0 
L 1638 0 
L 1638 4134 
L -19 4134 
L -19 4666 
z
" transform="scale(0.015625)"/>
       <path id="DejaVuSans-69" d="M 603 3500 
L 1178 3500 
L 1178 0 
L 603 0 
L 603 3500 
z
M 603 4863 
L 1178 4863 
L 1178 4134 
L 603 4134 
L 603 4863 
z
" transform="scale(0.015625)"/>
       <path id="DejaVuSans-6d" d="M 3328 2828 
Q 3544 3216 3844 3400 
Q 4144 3584 4550 3584 
Q 5097 3584 5394 3201 
Q 5691 2819 5691 2113 
L 5691 0 
L 5113 0 
L 5113 2094 
Q 5113 2597 4934 2840 
Q 4756 3084 4391 3084 
Q 3944 3084 3684 2787 
Q 3425 2491 3425 1978 
L 3425 0 
L 2847 0 
L 2847 2094 
Q 2847 2600 2669 2842 
Q 2491 3084 2119 3084 
Q 1678 3084 1418 2786 
Q 1159 2488 1159 1978 
L 1159 0 
L 581 0 
L 581 3500 
L 1159 3500 
L 1159 2956 
Q 1356 3278 1631 3431 
Q 1906 3584 2284 3584 
Q 2666 3584 2933 3390 
Q 3200 3197 3328 2828 
z
" transform="scale(0.015625)"/>
       <path id="DejaVuSans-65" d="M 3597 1894 
L 3597 1613 
L 953 1613 
Q 991 1019 1311 708 
Q 1631 397 2203 397 
Q 2534 397 2845 478 
Q 3156 559 3463 722 
L 3463 178 
Q 3153 47 2828 -22 
Q 2503 -91 2169 -91 
Q 1331 -91 842 396 
Q 353 884 353 1716 
Q 353 2575 817 3079 
Q 1281 3584 2069 3584 
Q 2775 3584 3186 3129 
Q 3597 2675 3597 1894 
z
M 3022 2063 
Q 3016 2534 2758 2815 
Q 2500 3097 2075 3097 
Q 1594 3097 1305 2825 
Q 1016 2553 972 2059 
L 3022 2063 
z
" transform="scale(0.015625)"/>
       <path id="DejaVuSans-20" transform="scale(0.015625)"/>
       <path id="DejaVuSans-50" d="M 1259 4147 
L 1259 2394 
L 2053 2394 
Q 2494 2394 2734 2622 
Q 2975 2850 2975 3272 
Q 2975 3691 2734 3919 
Q 2494 4147 2053 4147 
L 1259 4147 
z
M 628 4666 
L 2053 4666 
Q 2838 4666 3239 4311 
Q 3641 3956 3641 3272 
Q 3641 2581 3239 2228 
Q 2838 1875 2053 1875 
L 1259 1875 
L 1259 0 
L 628 0 
L 628 4666 
z
" transform="scale(0.015625)"/>
       <path id="DejaVuSans-72" d="M 2631 2963 
Q 2534 3019 2420 3045 
Q 2306 3072 2169 3072 
Q 1681 3072 1420 2755 
Q 1159 2438 1159 1844 
L 1159 0 
L 581 0 
L 581 3500 
L 1159 3500 
L 1159 2956 
Q 1341 3275 1631 3429 
Q 1922 3584 2338 3584 
Q 2397 3584 2469 3576 
Q 2541 3569 2628 3553 
L 2631 2963 
z
" transform="scale(0.015625)"/>
       <path id="DejaVuSans-6f" d="M 1959 3097 
Q 1497 3097 1228 2736 
Q 959 2375 959 1747 
Q 959 1119 1226 758 
Q 1494 397 1959 397 
Q 2419 397 2687 759 
Q 2956 1122 2956 1747 
Q 2956 2369 2687 2733 
Q 2419 3097 1959 3097 
z
M 1959 3584 
Q 2709 3584 3137 3096 
Q 3566 2609 3566 1747 
Q 3566 888 3137 398 
Q 2709 -91 1959 -91 
Q 1206 -91 779 398 
Q 353 888 353 1747 
Q 353 2609 779 3096 
Q 1206 3584 1959 3584 
z
" transform="scale(0.015625)"/>
       <path id="DejaVuSans-64" d="M 2906 2969 
L 2906 4863 
L 3481 4863 
L 3481 0 
L 2906 0 
L 2906 525 
Q 2725 213 2448 61 
Q 2172 -91 1784 -91 
Q 1150 -91 751 415 
Q 353 922 353 1747 
Q 353 2572 751 3078 
Q 1150 3584 1784 3584 
Q 2172 3584 2448 3432 
Q 2725 3281 2906 2969 
z
M 947 1747 
Q 947 1113 1208 752 
Q 1469 391 1925 391 
Q 2381 391 2643 752 
Q 2906 1113 2906 1747 
Q 2906 2381 2643 2742 
Q 2381 3103 1925 3103 
Q 1469 3103 1208 2742 
Q 947 2381 947 1747 
z
" transform="scale(0.015625)"/>
      </defs>
      <use xlink:href="#DejaVuSans-54"/>
      <use xlink:href="#DejaVuSans-69" transform="translate(57.958984 0)"/>
      <use xlink:href="#DejaVuSans-6d" transform="translate(85.742188 0)"/>
      <use xlink:href="#DejaVuSans-65" transform="translate(183.154297 0)"/>
      <use xlink:href="#DejaVuSans-20" transform="translate(244.677734 0)"/>
      <use xlink:href="#DejaVuSans-50" transform="translate(276.464844 0)"/>
      <use xlink:href="#DejaVuSans-65" transform="translate(333.142578 0)"/>
      <use xlink:href="#DejaVuSans-72" transform="translate(394.666016 0)"/>
      <use xlink:href="#DejaVuSans-69" transform="translate(435.779297 0)"/>
      <use xlink:href="#DejaVuSans-6f" transform="translate(463.5625 0)"/>
      <use xlink:href="#DejaVuSans-64" transform="translate(524.744141 0)"/>
     </g>
    </g>
   </g>
   <g id="matplotlib.axis_2">
    <g id="ytick_1">
     <g id="line2d_9">
      <defs>
       <path id="m734339f85d" d="M 0 0 
L -3.5 0 
" style="stroke: #000000; stroke-width: 0.8"/>
      </defs>
      <g>
       <use xlink:href="#m734339f85d" x="79.279688" y="246.878125" style="stroke: #000000; stroke-width: 0.8"/>
      </g>
     </g>
     <g id="text_10">
      <!-- Machine 1 -->
      <g transform="translate(20.878125 250.677344) scale(0.1 -0.1)">
       <defs>
        <path id="DejaVuSans-4d" d="M 628 4666 
L 1569 4666 
L 2759 1491 
L 3956 4666 
L 4897 4666 
L 4897 0 
L 4281 0 
L 4281 4097 
L 3078 897 
L 2444 897 
L 1241 4097 
L 1241 0 
L 628 0 
L 628 4666 
z
" transform="scale(0.015625)"/>
        <path id="DejaVuSans-61" d="M 2194 1759 
Q 1497 1759 1228 1600 
Q 959 1441 959 1056 
Q 959 750 1161 570 
Q 1363 391 1709 391 
Q 2188 391 2477 730 
Q 2766 1069 2766 1631 
L 2766 1759 
L 2194 1759 
z
M 3341 1997 
L 3341 0 
L 2766 0 
L 2766 531 
Q 2569 213 2275 61 
Q 1981 -91 1556 -91 
Q 1019 -91 701 211 
Q 384 513 384 1019 
Q 384 1609 779 1909 
Q 1175 2209 1959 2209 
L 2766 2209 
L 2766 2266 
Q 2766 2663 2505 2880 
Q 2244 3097 1772 3097 
Q 1472 3097 1187 3025 
Q 903 2953 641 2809 
L 641 3341 
Q 956 3463 1253 3523 
Q 1550 3584 1831 3584 
Q 2591 3584 2966 3190 
Q 3341 2797 3341 1997 
z
" transform="scale(0.015625)"/>
        <path id="DejaVuSans-63" d="M 3122 3366 
L 3122 2828 
Q 2878 2963 2633 3030 
Q 2388 3097 2138 3097 
Q 1578 3097 1268 2742 
Q 959 2388 959 1747 
Q 959 1106 1268 751 
Q 1578 397 2138 397 
Q 2388 397 2633 464 
Q 2878 531 3122 666 
L 3122 134 
Q 2881 22 2623 -34 
Q 2366 -91 2075 -91 
Q 1284 -91 818 406 
Q 353 903 353 1747 
Q 353 2603 823 3093 
Q 1294 3584 2113 3584 
Q 2378 3584 2631 3529 
Q 2884 3475 3122 3366 
z
" transform="scale(0.015625)"/>
        <path id="DejaVuSans-68" d="M 3513 2113 
L 3513 0 
L 2938 0 
L 2938 2094 
Q 2938 2591 2744 2837 
Q 2550 3084 2163 3084 
Q 1697 3084 1428 2787 
Q 1159 2491 1159 1978 
L 1159 0 
L 581 0 
L 581 4863 
L 1159 4863 
L 1159 2956 
Q 1366 3272 1645 3428 
Q 1925 3584 2291 3584 
Q 2894 3584 3203 3211 
Q 3513 2838 3513 2113 
z
" transform="scale(0.015625)"/>
        <path id="DejaVuSans-6e" d="M 3513 2113 
L 3513 0 
L 2938 0 
L 2938 2094 
Q 2938 2591 2744 2837 
Q 2550 3084 2163 3084 
Q 1697 3084 1428 2787 
Q 1159 2491 1159 1978 
L 1159 0 
L 581 0 
L 581 3500 
L 1159 3500 
L 1159 2956 
Q 1366 3272 1645 3428 
Q 1925 3584 2291 3584 
Q 2894 3584 3203 3211 
Q 3513 2838 3513 2113 
z
" transform="scale(0.015625)"/>
       </defs>
       <use xlink:href="#DejaVuSans-4d"/>
       <use xlink:href="#DejaVuSans-61" transform="translate(86.279297 0)"/>
       <use xlink:href="#DejaVuSans-63" transform="translate(147.558594 0)"/>
       <use xlink:href="#DejaVuSans-68" transform="translate(202.539062 0)"/>
       <use xlink:href="#DejaVuSans-69" transform="translate(265.917969 0)"/>
       <use xlink:href="#DejaVuSans-6e" transform="translate(293.701172 0)"/>
       <use xlink:href="#DejaVuSans-65" transform="translate(357.080078 0)"/>
       <use xlink:href="#DejaVuSans-20" transform="translate(418.603516 0)"/>
       <use xlink:href="#DejaVuSans-31" transform="translate(450.390625 0)"/>
      </g>
     </g>
    </g>
    <g id="ytick_2">
     <g id="line2d_10">
      <g>
       <use xlink:href="#m734339f85d" x="79.279688" y="211.233681" style="stroke: #000000; stroke-width: 0.8"/>
      </g>
     </g>
     <g id="text_11">
      <!-- Machine 2 -->
      <g transform="translate(20.878125 215.032899) scale(0.1 -0.1)">
       <use xlink:href="#DejaVuSans-4d"/>
       <use xlink:href="#DejaVuSans-61" transform="translate(86.279297 0)"/>
       <use xlink:href="#DejaVuSans-63" transform="translate(147.558594 0)"/>
       <use xlink:href="#DejaVuSans-68" transform="translate(202.539062 0)"/>
       <use xlink:href="#DejaVuSans-69" transform="translate(265.917969 0)"/>
       <use xlink:href="#DejaVuSans-6e" transform="translate(293.701172 0)"/>
       <use xlink:href="#DejaVuSans-65" transform="translate(357.080078 0)"/>
       <use xlink:href="#DejaVuSans-20" transform="translate(418.603516 0)"/>
       <use xlink:href="#DejaVuSans-32" transform="translate(450.390625 0)"/>
      </g>
     </g>
    </g>
    <g id="ytick_3">
     <g id="line2d_11">
      <g>
       <use xlink:href="#m734339f85d" x="79.279688" y="175.589236" style="stroke: #000000; stroke-width: 0.8"/>
      </g>
     </g>
     <g id="text_12">
      <!-- Machine 3 -->
      <g transform="translate(20.878125 179.388455) scale(0.1 -0.1)">
       <use xlink:href="#DejaVuSans-4d"/>
       <use xlink:href="#DejaVuSans-61" transform="translate(86.279297 0)"/>
       <use xlink:href="#DejaVuSans-63" transform="translate(147.558594 0)"/>
       <use xlink:href="#DejaVuSans-68" transform="translate(202.539062 0)"/>
       <use xlink:href="#DejaVuSans-69" transform="translate(265.917969 0)"/>
       <use xlink:href="#DejaVuSans-6e" transform="translate(293.701172 0)"/>
       <use xlink:href="#DejaVuSans-65" transform="translate(357.080078 0)"/>
       <use xlink:href="#DejaVuSans-20" transform="translate(418.603516 0)"/>
       <use xlink:href="#DejaVuSans-33" transform="translate(450.390625 0)"/>
      </g>
     </g>
    </g>
    <g id="ytick_4">
     <g id="line2d_12">
      <g>
       <use xlink:href="#m734339f85d" x="79.279688" y="139.944792" style="stroke: #000000; stroke-width: 0.8"/>
      </g>
     </g>
     <g id="text_13">
      <!-- Machine 4 -->
      <g transform="translate(20.878125 143.74401) scale(0.1 -0.1)">
       <use xlink:href="#DejaVuSans-4d"/>
       <use xlink:href="#DejaVuSans-61" transform="translate(86.279297 0)"/>
       <use xlink:href="#DejaVuSans-63" transform="translate(147.558594 0)"/>
       <use xlink:href="#DejaVuSans-68" transform="translate(202.539062 0)"/>
       <use xlink:href="#DejaVuSans-69" transform="translate(265.917969 0)"/>
       <use xlink:href="#DejaVuSans-6e" transform="translate(293.701172 0)"/>
       <use xlink:href="#DejaVuSans-65" transform="translate(357.080078 0)"/>
       <use xlink:href="#DejaVuSans-20" transform="translate(418.603516 0)"/>
       <use xlink:href="#DejaVuSans-34" transform="translate(450.390625 0)"/>
      </g>
     </g>
    </g>
    <g id="ytick_5">
     <g id="line2d_13">
      <g>
       <use xlink:href="#m734339f85d" x="79.279688" y="104.300347" style="stroke: #000000; stroke-width: 0.8"/>
      </g>
     </g>
     <g id="text_14">
      <!-- Machine 5 -->
      <g transform="translate(20.878125 108.099566) scale(0.1 -0.1)">
       <use xlink:href="#DejaVuSans-4d"/>
       <use xlink:href="#DejaVuSans-61" transform="translate(86.279297 0)"/>
       <use xlink:href="#DejaVuSans-63" transform="translate(147.558594 0)"/>
       <use xlink:href="#DejaVuSans-68" transform="translate(202.539062 0)"/>
       <use xlink:href="#DejaVuSans-69" transform="translate(265.917969 0)"/>
       <use xlink:href="#DejaVuSans-6e" transform="translate(293.701172 0)"/>
       <use xlink:href="#DejaVuSans-65" transform="translate(357.080078 0)"/>
       <use xlink:href="#DejaVuSans-20" transform="translate(418.603516 0)"/>
       <use xlink:href="#DejaVuSans-35" transform="translate(450.390625 0)"/>
      </g>
     </g>
    </g>
    <g id="ytick_6">
     <g id="line2d_14">
      <g>
       <use xlink:href="#m734339f85d" x="79.279688" y="68.655903" style="stroke: #000000; stroke-width: 0.8"/>
      </g>
     </g>
     <g id="text_15">
      <!-- Machine 6 -->
      <g transform="translate(20.878125 72.455122) scale(0.1 -0.1)">
       <defs>
        <path id="DejaVuSans-36" d="M 2113 2584 
Q 1688 2584 1439 2293 
Q 1191 2003 1191 1497 
Q 1191 994 1439 701 
Q 1688 409 2113 409 
Q 2538 409 2786 701 
Q 3034 994 3034 1497 
Q 3034 2003 2786 2293 
Q 2538 2584 2113 2584 
z
M 3366 4563 
L 3366 3988 
Q 3128 4100 2886 4159 
Q 2644 4219 2406 4219 
Q 1781 4219 1451 3797 
Q 1122 3375 1075 2522 
Q 1259 2794 1537 2939 
Q 1816 3084 2150 3084 
Q 2853 3084 3261 2657 
Q 3669 2231 3669 1497 
Q 3669 778 3244 343 
Q 2819 -91 2113 -91 
Q 1303 -91 875 529 
Q 447 1150 447 2328 
Q 447 3434 972 4092 
Q 1497 4750 2381 4750 
Q 2619 4750 2861 4703 
Q 3103 4656 3366 4563 
z
" transform="scale(0.015625)"/>
       </defs>
       <use xlink:href="#DejaVuSans-4d"/>
       <use xlink:href="#DejaVuSans-61" transform="translate(86.279297 0)"/>
       <use xlink:href="#DejaVuSans-63" transform="translate(147.558594 0)"/>
       <use xlink:href="#DejaVuSans-68" transform="translate(202.539062 0)"/>
       <use xlink:href="#DejaVuSans-69" transform="translate(265.917969 0)"/>
       <use xlink:href="#DejaVuSans-6e" transform="translate(293.701172 0)"/>
       <use xlink:href="#DejaVuSans-65" transform="translate(357.080078 0)"/>
       <use xlink:href="#DejaVuSans-20" transform="translate(418.603516 0)"/>
       <use xlink:href="#DejaVuSans-36" transform="translate(450.390625 0)"/>
      </g>
     </g>
    </g>
    <g id="text_16">
     <!-- Machine -->
     <g transform="translate(14.798438 155.528594) rotate(-90) scale(0.1 -0.1)">
      <use xlink:href="#DejaVuSans-4d"/>
      <use xlink:href="#DejaVuSans-61" transform="translate(86.279297 0)"/>
      <use xlink:href="#DejaVuSans-63" transform="translate(147.558594 0)"/>
      <use xlink:href="#DejaVuSans-68" transform="translate(202.539062 0)"/>
      <use xlink:href="#DejaVuSans-69" transform="translate(265.917969 0)"/>
      <use xlink:href="#DejaVuSans-6e" transform="translate(293.701172 0)"/>
      <use xlink:href="#DejaVuSans-65" transform="translate(357.080078 0)"/>
     </g>
    </g>
   </g>
   <g id="patch_123">
    <path d="M 79.279688 246.878125 
L 79.279688 22.318125 
" style="fill: none; stroke: #000000; stroke-width: 0.8; stroke-linejoin: miter; stroke-linecap: square"/>
   </g>
   <g id="patch_124">
    <path d="M 849.209687 246.878125 
L 849.209687 22.318125 
" style="fill: none; stroke: #000000; stroke-width: 0.8; stroke-linejoin: miter; stroke-linecap: square"/>
   </g>
   <g id="patch_125">
    <path d="M 79.279687 246.878125 
L 849.209687 246.878125 
" style="fill: none; stroke: #000000; stroke-width: 0.8; stroke-linejoin: miter; stroke-linecap: square"/>
   </g>
   <g id="patch_126">
    <path d="M 79.279687 22.318125 
L 849.209687 22.318125 
" style="fill: none; stroke: #000000; stroke-width: 0.8; stroke-linejoin: miter; stroke-linecap: square"/>
   </g>
   <g id="text_17">
    <!-- Machine Schedule -->
    <g transform="translate(409.648437 16.318125) scale(0.12 -0.12)">
     <defs>
      <path id="DejaVuSans-53" d="M 3425 4513 
L 3425 3897 
Q 3066 4069 2747 4153 
Q 2428 4238 2131 4238 
Q 1616 4238 1336 4038 
Q 1056 3838 1056 3469 
Q 1056 3159 1242 3001 
Q 1428 2844 1947 2747 
L 2328 2669 
Q 3034 2534 3370 2195 
Q 3706 1856 3706 1288 
Q 3706 609 3251 259 
Q 2797 -91 1919 -91 
Q 1588 -91 1214 -16 
Q 841 59 441 206 
L 441 856 
Q 825 641 1194 531 
Q 1563 422 1919 422 
Q 2459 422 2753 634 
Q 3047 847 3047 1241 
Q 3047 1584 2836 1778 
Q 2625 1972 2144 2069 
L 1759 2144 
Q 1053 2284 737 2584 
Q 422 2884 422 3419 
Q 422 4038 858 4394 
Q 1294 4750 2059 4750 
Q 2388 4750 2728 4690 
Q 3069 4631 3425 4513 
z
" transform="scale(0.015625)"/>
      <path id="DejaVuSans-75" d="M 544 1381 
L 544 3500 
L 1119 3500 
L 1119 1403 
Q 1119 906 1312 657 
Q 1506 409 1894 409 
Q 2359 409 2629 706 
Q 2900 1003 2900 1516 
L 2900 3500 
L 3475 3500 
L 3475 0 
L 2900 0 
L 2900 538 
Q 2691 219 2414 64 
Q 2138 -91 1772 -91 
Q 1169 -91 856 284 
Q 544 659 544 1381 
z
M 1991 3584 
L 1991 3584 
z
" transform="scale(0.015625)"/>
      <path id="DejaVuSans-6c" d="M 603 4863 
L 1178 4863 
L 1178 0 
L 603 0 
L 603 4863 
z
" transform="scale(0.015625)"/>
     </defs>
     <use xlink:href="#DejaVuSans-4d"/>
     <use xlink:href="#DejaVuSans-61" transform="translate(86.279297 0)"/>
     <use xlink:href="#DejaVuSans-63" transform="translate(147.558594 0)"/>
     <use xlink:href="#DejaVuSans-68" transform="translate(202.539062 0)"/>
     <use xlink:href="#DejaVuSans-69" transform="translate(265.917969 0)"/>
     <use xlink:href="#DejaVuSans-6e" transform="translate(293.701172 0)"/>
     <use xlink:href="#DejaVuSans-65" transform="translate(357.080078 0)"/>
     <use xlink:href="#DejaVuSans-20" transform="translate(418.603516 0)"/>
     <use xlink:href="#DejaVuSans-53" transform="translate(450.390625 0)"/>
     <use xlink:href="#DejaVuSans-63" transform="translate(513.867188 0)"/>
     <use xlink:href="#DejaVuSans-68" transform="translate(568.847656 0)"/>
     <use xlink:href="#DejaVuSans-65" transform="translate(632.226562 0)"/>
     <use xlink:href="#DejaVuSans-64" transform="translate(693.75 0)"/>
     <use xlink:href="#DejaVuSans-75" transform="translate(757.226562 0)"/>
     <use xlink:href="#DejaVuSans-6c" transform="translate(820.605469 0)"/>
     <use xlink:href="#DejaVuSans-65" transform="translate(848.388672 0)"/>
    </g>
   </g>
  </g>
  <g id="axes_2">
   <g id="patch_127">
    <path d="M 79.279688 529.478125 
L 849.209687 529.478125 
L 849.209687 304.918125 
L 79.279688 304.918125 
z
" style="fill: #ffffff"/>
   </g>
   <g id="matplotlib.axis_3">
    <g id="xtick_9">
     <g id="line2d_15">
      <g>
       <use xlink:href="#mf16fd876a0" x="99.060498" y="529.478125" style="stroke: #000000; stroke-width: 0.8"/>
      </g>
     </g>
     <g id="text_18">
      <!-- 0 -->
      <g transform="translate(95.879248 544.076562) scale(0.1 -0.1)">
       <use xlink:href="#DejaVuSans-30"/>
      </g>
     </g>
    </g>
    <g id="xtick_10">
     <g id="line2d_16">
      <g>
       <use xlink:href="#mf16fd876a0" x="251.220577" y="529.478125" style="stroke: #000000; stroke-width: 0.8"/>
      </g>
     </g>
     <g id="text_19">
      <!-- 10 -->
      <g transform="translate(244.858077 544.076562) scale(0.1 -0.1)">
       <use xlink:href="#DejaVuSans-31"/>
       <use xlink:href="#DejaVuSans-30" transform="translate(63.623047 0)"/>
      </g>
     </g>
    </g>
    <g id="xtick_11">
     <g id="line2d_17">
      <g>
       <use xlink:href="#mf16fd876a0" x="403.380656" y="529.478125" style="stroke: #000000; stroke-width: 0.8"/>
      </g>
     </g>
     <g id="text_20">
      <!-- 20 -->
      <g transform="translate(397.018156 544.076562) scale(0.1 -0.1)">
       <use xlink:href="#DejaVuSans-32"/>
       <use xlink:href="#DejaVuSans-30" transform="translate(63.623047 0)"/>
      </g>
     </g>
    </g>
    <g id="xtick_12">
     <g id="line2d_18">
      <g>
       <use xlink:href="#mf16fd876a0" x="555.540735" y="529.478125" style="stroke: #000000; stroke-width: 0.8"/>
      </g>
     </g>
     <g id="text_21">
      <!-- 30 -->
      <g transform="translate(549.178235 544.076562) scale(0.1 -0.1)">
       <use xlink:href="#DejaVuSans-33"/>
       <use xlink:href="#DejaVuSans-30" transform="translate(63.623047 0)"/>
      </g>
     </g>
    </g>
    <g id="xtick_13">
     <g id="line2d_19">
      <g>
       <use xlink:href="#mf16fd876a0" x="707.700814" y="529.478125" style="stroke: #000000; stroke-width: 0.8"/>
      </g>
     </g>
     <g id="text_22">
      <!-- 40 -->
      <g transform="translate(701.338314 544.076562) scale(0.1 -0.1)">
       <use xlink:href="#DejaVuSans-34"/>
       <use xlink:href="#DejaVuSans-30" transform="translate(63.623047 0)"/>
      </g>
     </g>
    </g>
    <g id="text_23">
     <!-- Time Period -->
     <g transform="translate(434.83375 557.754687) scale(0.1 -0.1)">
      <use xlink:href="#DejaVuSans-54"/>
      <use xlink:href="#DejaVuSans-69" transform="translate(57.958984 0)"/>
      <use xlink:href="#DejaVuSans-6d" transform="translate(85.742188 0)"/>
      <use xlink:href="#DejaVuSans-65" transform="translate(183.154297 0)"/>
      <use xlink:href="#DejaVuSans-20" transform="translate(244.677734 0)"/>
      <use xlink:href="#DejaVuSans-50" transform="translate(276.464844 0)"/>
      <use xlink:href="#DejaVuSans-65" transform="translate(333.142578 0)"/>
      <use xlink:href="#DejaVuSans-72" transform="translate(394.666016 0)"/>
      <use xlink:href="#DejaVuSans-69" transform="translate(435.779297 0)"/>
      <use xlink:href="#DejaVuSans-6f" transform="translate(463.5625 0)"/>
      <use xlink:href="#DejaVuSans-64" transform="translate(524.744141 0)"/>
     </g>
    </g>
   </g>
   <g id="matplotlib.axis_4">
    <g id="ytick_7">
     <g id="line2d_20">
      <g>
       <use xlink:href="#m734339f85d" x="79.279688" y="519.270852" style="stroke: #000000; stroke-width: 0.8"/>
      </g>
     </g>
     <g id="text_24">
      <!-- 0 -->
      <g transform="translate(65.917188 523.070071) scale(0.1 -0.1)">
       <use xlink:href="#DejaVuSans-30"/>
      </g>
     </g>
    </g>
    <g id="ytick_8">
     <g id="line2d_21">
      <g>
       <use xlink:href="#m734339f85d" x="79.279688" y="473.905196" style="stroke: #000000; stroke-width: 0.8"/>
      </g>
     </g>
     <g id="text_25">
      <!-- 50000 -->
      <g transform="translate(40.467188 477.704414) scale(0.1 -0.1)">
       <use xlink:href="#DejaVuSans-35"/>
       <use xlink:href="#DejaVuSans-30" transform="translate(63.623047 0)"/>
       <use xlink:href="#DejaVuSans-30" transform="translate(127.246094 0)"/>
       <use xlink:href="#DejaVuSans-30" transform="translate(190.869141 0)"/>
       <use xlink:href="#DejaVuSans-30" transform="translate(254.492188 0)"/>
      </g>
     </g>
    </g>
    <g id="ytick_9">
     <g id="line2d_22">
      <g>
       <use xlink:href="#m734339f85d" x="79.279688" y="428.539539" style="stroke: #000000; stroke-width: 0.8"/>
      </g>
     </g>
     <g id="text_26">
      <!-- 100000 -->
      <g transform="translate(34.104688 432.338758) scale(0.1 -0.1)">
       <use xlink:href="#DejaVuSans-31"/>
       <use xlink:href="#DejaVuSans-30" transform="translate(63.623047 0)"/>
       <use xlink:href="#DejaVuSans-30" transform="translate(127.246094 0)"/>
       <use xlink:href="#DejaVuSans-30" transform="translate(190.869141 0)"/>
       <use xlink:href="#DejaVuSans-30" transform="translate(254.492188 0)"/>
       <use xlink:href="#DejaVuSans-30" transform="translate(318.115234 0)"/>
      </g>
     </g>
    </g>
    <g id="ytick_10">
     <g id="line2d_23">
      <g>
       <use xlink:href="#m734339f85d" x="79.279688" y="383.173883" style="stroke: #000000; stroke-width: 0.8"/>
      </g>
     </g>
     <g id="text_27">
      <!-- 150000 -->
      <g transform="translate(34.104688 386.973101) scale(0.1 -0.1)">
       <use xlink:href="#DejaVuSans-31"/>
       <use xlink:href="#DejaVuSans-35" transform="translate(63.623047 0)"/>
       <use xlink:href="#DejaVuSans-30" transform="translate(127.246094 0)"/>
       <use xlink:href="#DejaVuSans-30" transform="translate(190.869141 0)"/>
       <use xlink:href="#DejaVuSans-30" transform="translate(254.492188 0)"/>
       <use xlink:href="#DejaVuSans-30" transform="translate(318.115234 0)"/>
      </g>
     </g>
    </g>
    <g id="ytick_11">
     <g id="line2d_24">
      <g>
       <use xlink:href="#m734339f85d" x="79.279688" y="337.808226" style="stroke: #000000; stroke-width: 0.8"/>
      </g>
     </g>
     <g id="text_28">
      <!-- 200000 -->
      <g transform="translate(34.104688 341.607445) scale(0.1 -0.1)">
       <use xlink:href="#DejaVuSans-32"/>
       <use xlink:href="#DejaVuSans-30" transform="translate(63.623047 0)"/>
       <use xlink:href="#DejaVuSans-30" transform="translate(127.246094 0)"/>
       <use xlink:href="#DejaVuSans-30" transform="translate(190.869141 0)"/>
       <use xlink:href="#DejaVuSans-30" transform="translate(254.492188 0)"/>
       <use xlink:href="#DejaVuSans-30" transform="translate(318.115234 0)"/>
      </g>
     </g>
    </g>
    <g id="text_29">
     <!-- Energy Storage -->
     <g transform="translate(28.025 455.8575) rotate(-90) scale(0.1 -0.1)">
      <defs>
       <path id="DejaVuSans-45" d="M 628 4666 
L 3578 4666 
L 3578 4134 
L 1259 4134 
L 1259 2753 
L 3481 2753 
L 3481 2222 
L 1259 2222 
L 1259 531 
L 3634 531 
L 3634 0 
L 628 0 
L 628 4666 
z
" transform="scale(0.015625)"/>
       <path id="DejaVuSans-67" d="M 2906 1791 
Q 2906 2416 2648 2759 
Q 2391 3103 1925 3103 
Q 1463 3103 1205 2759 
Q 947 2416 947 1791 
Q 947 1169 1205 825 
Q 1463 481 1925 481 
Q 2391 481 2648 825 
Q 2906 1169 2906 1791 
z
M 3481 434 
Q 3481 -459 3084 -895 
Q 2688 -1331 1869 -1331 
Q 1566 -1331 1297 -1286 
Q 1028 -1241 775 -1147 
L 775 -588 
Q 1028 -725 1275 -790 
Q 1522 -856 1778 -856 
Q 2344 -856 2625 -561 
Q 2906 -266 2906 331 
L 2906 616 
Q 2728 306 2450 153 
Q 2172 0 1784 0 
Q 1141 0 747 490 
Q 353 981 353 1791 
Q 353 2603 747 3093 
Q 1141 3584 1784 3584 
Q 2172 3584 2450 3431 
Q 2728 3278 2906 2969 
L 2906 3500 
L 3481 3500 
L 3481 434 
z
" transform="scale(0.015625)"/>
       <path id="DejaVuSans-79" d="M 2059 -325 
Q 1816 -950 1584 -1140 
Q 1353 -1331 966 -1331 
L 506 -1331 
L 506 -850 
L 844 -850 
Q 1081 -850 1212 -737 
Q 1344 -625 1503 -206 
L 1606 56 
L 191 3500 
L 800 3500 
L 1894 763 
L 2988 3500 
L 3597 3500 
L 2059 -325 
z
" transform="scale(0.015625)"/>
       <path id="DejaVuSans-74" d="M 1172 4494 
L 1172 3500 
L 2356 3500 
L 2356 3053 
L 1172 3053 
L 1172 1153 
Q 1172 725 1289 603 
Q 1406 481 1766 481 
L 2356 481 
L 2356 0 
L 1766 0 
Q 1100 0 847 248 
Q 594 497 594 1153 
L 594 3053 
L 172 3053 
L 172 3500 
L 594 3500 
L 594 4494 
L 1172 4494 
z
" transform="scale(0.015625)"/>
      </defs>
      <use xlink:href="#DejaVuSans-45"/>
      <use xlink:href="#DejaVuSans-6e" transform="translate(63.183594 0)"/>
      <use xlink:href="#DejaVuSans-65" transform="translate(126.5625 0)"/>
      <use xlink:href="#DejaVuSans-72" transform="translate(188.085938 0)"/>
      <use xlink:href="#DejaVuSans-67" transform="translate(227.449219 0)"/>
      <use xlink:href="#DejaVuSans-79" transform="translate(290.925781 0)"/>
      <use xlink:href="#DejaVuSans-20" transform="translate(350.105469 0)"/>
      <use xlink:href="#DejaVuSans-53" transform="translate(381.892578 0)"/>
      <use xlink:href="#DejaVuSans-74" transform="translate(445.369141 0)"/>
      <use xlink:href="#DejaVuSans-6f" transform="translate(484.578125 0)"/>
      <use xlink:href="#DejaVuSans-72" transform="translate(545.759766 0)"/>
      <use xlink:href="#DejaVuSans-61" transform="translate(586.873047 0)"/>
      <use xlink:href="#DejaVuSans-67" transform="translate(648.152344 0)"/>
      <use xlink:href="#DejaVuSans-65" transform="translate(711.628906 0)"/>
     </g>
    </g>
   </g>
   <g id="line2d_25">
    <path d="M 114.276506 519.270852 
L 129.492514 519.270852 
L 144.708521 519.270852 
L 159.924529 519.270852 
L 175.140537 519.270852 
L 190.356545 519.270852 
L 205.572553 519.270852 
L 220.788561 519.270852 
L 236.004569 519.270852 
L 251.220577 519.270852 
L 266.436585 519.270852 
L 281.652593 519.270852 
L 296.868601 519.270852 
L 312.084608 519.270852 
L 327.300616 519.270852 
L 342.516624 362.527369 
L 357.732632 315.125398 
L 372.94864 315.125398 
L 388.164648 315.125398 
L 403.380656 349.097698 
L 418.596664 349.097698 
L 433.812672 349.097698 
L 449.02868 360.245442 
L 464.244687 516.084594 
L 479.460695 433.34031 
L 494.676703 441.898313 
L 509.892711 442.429091 
L 525.108719 442.429091 
L 540.324727 441.920094 
L 555.540735 442.447243 
L 570.756743 503.609456 
L 585.972751 425.677469 
L 601.188759 437.440784 
L 616.404767 519.270852 
L 631.620774 519.270852 
L 646.836782 519.270852 
L 662.05279 519.270852 
L 677.268798 519.270852 
L 692.484806 519.270852 
L 707.700814 519.270852 
L 722.916822 519.270852 
L 738.13283 519.270852 
L 753.348838 430.945918 
L 768.564846 434.01656 
L 783.780854 434.01656 
L 798.996861 434.01656 
L 814.212869 434.01656 
" clip-path="url(#pc22cc0aede)" style="fill: none; stroke: #1f77b4; stroke-width: 1.5; stroke-linecap: square"/>
    <defs>
     <path id="mc2264c45b8" d="M 0 2 
C 0.530406 2 1.03916 1.789267 1.414214 1.414214 
C 1.789267 1.03916 2 0.530406 2 0 
C 2 -0.530406 1.789267 -1.03916 1.414214 -1.414214 
C 1.03916 -1.789267 0.530406 -2 0 -2 
C -0.530406 -2 -1.03916 -1.789267 -1.414214 -1.414214 
C -1.789267 -1.03916 -2 -0.530406 -2 0 
C -2 0.530406 -1.789267 1.03916 -1.414214 1.414214 
C -1.03916 1.789267 -0.530406 2 0 2 
z
" style="stroke: #1f77b4"/>
    </defs>
    <g clip-path="url(#pc22cc0aede)">
     <use xlink:href="#mc2264c45b8" x="114.276506" y="519.270852" style="fill: #1f77b4; stroke: #1f77b4"/>
     <use xlink:href="#mc2264c45b8" x="129.492514" y="519.270852" style="fill: #1f77b4; stroke: #1f77b4"/>
     <use xlink:href="#mc2264c45b8" x="144.708521" y="519.270852" style="fill: #1f77b4; stroke: #1f77b4"/>
     <use xlink:href="#mc2264c45b8" x="159.924529" y="519.270852" style="fill: #1f77b4; stroke: #1f77b4"/>
     <use xlink:href="#mc2264c45b8" x="175.140537" y="519.270852" style="fill: #1f77b4; stroke: #1f77b4"/>
     <use xlink:href="#mc2264c45b8" x="190.356545" y="519.270852" style="fill: #1f77b4; stroke: #1f77b4"/>
     <use xlink:href="#mc2264c45b8" x="205.572553" y="519.270852" style="fill: #1f77b4; stroke: #1f77b4"/>
     <use xlink:href="#mc2264c45b8" x="220.788561" y="519.270852" style="fill: #1f77b4; stroke: #1f77b4"/>
     <use xlink:href="#mc2264c45b8" x="236.004569" y="519.270852" style="fill: #1f77b4; stroke: #1f77b4"/>
     <use xlink:href="#mc2264c45b8" x="251.220577" y="519.270852" style="fill: #1f77b4; stroke: #1f77b4"/>
     <use xlink:href="#mc2264c45b8" x="266.436585" y="519.270852" style="fill: #1f77b4; stroke: #1f77b4"/>
     <use xlink:href="#mc2264c45b8" x="281.652593" y="519.270852" style="fill: #1f77b4; stroke: #1f77b4"/>
     <use xlink:href="#mc2264c45b8" x="296.868601" y="519.270852" style="fill: #1f77b4; stroke: #1f77b4"/>
     <use xlink:href="#mc2264c45b8" x="312.084608" y="519.270852" style="fill: #1f77b4; stroke: #1f77b4"/>
     <use xlink:href="#mc2264c45b8" x="327.300616" y="519.270852" style="fill: #1f77b4; stroke: #1f77b4"/>
     <use xlink:href="#mc2264c45b8" x="342.516624" y="362.527369" style="fill: #1f77b4; stroke: #1f77b4"/>
     <use xlink:href="#mc2264c45b8" x="357.732632" y="315.125398" style="fill: #1f77b4; stroke: #1f77b4"/>
     <use xlink:href="#mc2264c45b8" x="372.94864" y="315.125398" style="fill: #1f77b4; stroke: #1f77b4"/>
     <use xlink:href="#mc2264c45b8" x="388.164648" y="315.125398" style="fill: #1f77b4; stroke: #1f77b4"/>
     <use xlink:href="#mc2264c45b8" x="403.380656" y="349.097698" style="fill: #1f77b4; stroke: #1f77b4"/>
     <use xlink:href="#mc2264c45b8" x="418.596664" y="349.097698" style="fill: #1f77b4; stroke: #1f77b4"/>
     <use xlink:href="#mc2264c45b8" x="433.812672" y="349.097698" style="fill: #1f77b4; stroke: #1f77b4"/>
     <use xlink:href="#mc2264c45b8" x="449.02868" y="360.245442" style="fill: #1f77b4; stroke: #1f77b4"/>
     <use xlink:href="#mc2264c45b8" x="464.244687" y="516.084594" style="fill: #1f77b4; stroke: #1f77b4"/>
     <use xlink:href="#mc2264c45b8" x="479.460695" y="433.34031" style="fill: #1f77b4; stroke: #1f77b4"/>
     <use xlink:href="#mc2264c45b8" x="494.676703" y="441.898313" style="fill: #1f77b4; stroke: #1f77b4"/>
     <use xlink:href="#mc2264c45b8" x="509.892711" y="442.429091" style="fill: #1f77b4; stroke: #1f77b4"/>
     <use xlink:href="#mc2264c45b8" x="525.108719" y="442.429091" style="fill: #1f77b4; stroke: #1f77b4"/>
     <use xlink:href="#mc2264c45b8" x="540.324727" y="441.920094" style="fill: #1f77b4; stroke: #1f77b4"/>
     <use xlink:href="#mc2264c45b8" x="555.540735" y="442.447243" style="fill: #1f77b4; stroke: #1f77b4"/>
     <use xlink:href="#mc2264c45b8" x="570.756743" y="503.609456" style="fill: #1f77b4; stroke: #1f77b4"/>
     <use xlink:href="#mc2264c45b8" x="585.972751" y="425.677469" style="fill: #1f77b4; stroke: #1f77b4"/>
     <use xlink:href="#mc2264c45b8" x="601.188759" y="437.440784" style="fill: #1f77b4; stroke: #1f77b4"/>
     <use xlink:href="#mc2264c45b8" x="616.404767" y="519.270852" style="fill: #1f77b4; stroke: #1f77b4"/>
     <use xlink:href="#mc2264c45b8" x="631.620774" y="519.270852" style="fill: #1f77b4; stroke: #1f77b4"/>
     <use xlink:href="#mc2264c45b8" x="646.836782" y="519.270852" style="fill: #1f77b4; stroke: #1f77b4"/>
     <use xlink:href="#mc2264c45b8" x="662.05279" y="519.270852" style="fill: #1f77b4; stroke: #1f77b4"/>
     <use xlink:href="#mc2264c45b8" x="677.268798" y="519.270852" style="fill: #1f77b4; stroke: #1f77b4"/>
     <use xlink:href="#mc2264c45b8" x="692.484806" y="519.270852" style="fill: #1f77b4; stroke: #1f77b4"/>
     <use xlink:href="#mc2264c45b8" x="707.700814" y="519.270852" style="fill: #1f77b4; stroke: #1f77b4"/>
     <use xlink:href="#mc2264c45b8" x="722.916822" y="519.270852" style="fill: #1f77b4; stroke: #1f77b4"/>
     <use xlink:href="#mc2264c45b8" x="738.13283" y="519.270852" style="fill: #1f77b4; stroke: #1f77b4"/>
     <use xlink:href="#mc2264c45b8" x="753.348838" y="430.945918" style="fill: #1f77b4; stroke: #1f77b4"/>
     <use xlink:href="#mc2264c45b8" x="768.564846" y="434.01656" style="fill: #1f77b4; stroke: #1f77b4"/>
     <use xlink:href="#mc2264c45b8" x="783.780854" y="434.01656" style="fill: #1f77b4; stroke: #1f77b4"/>
     <use xlink:href="#mc2264c45b8" x="798.996861" y="434.01656" style="fill: #1f77b4; stroke: #1f77b4"/>
     <use xlink:href="#mc2264c45b8" x="814.212869" y="434.01656" style="fill: #1f77b4; stroke: #1f77b4"/>
    </g>
   </g>
   <g id="line2d_26">
    <path d="M 79.279688 315.125398 
L 849.209687 315.125398 
" clip-path="url(#pc22cc0aede)" style="fill: none; stroke-dasharray: 5.55,2.4; stroke-dashoffset: 0; stroke: #ff0000; stroke-width: 1.5"/>
   </g>
   <g id="patch_128">
    <path d="M 79.279688 529.478125 
L 79.279688 304.918125 
" style="fill: none; stroke: #000000; stroke-width: 0.8; stroke-linejoin: miter; stroke-linecap: square"/>
   </g>
   <g id="patch_129">
    <path d="M 849.209687 529.478125 
L 849.209687 304.918125 
" style="fill: none; stroke: #000000; stroke-width: 0.8; stroke-linejoin: miter; stroke-linecap: square"/>
   </g>
   <g id="patch_130">
    <path d="M 79.279688 529.478125 
L 849.209687 529.478125 
" style="fill: none; stroke: #000000; stroke-width: 0.8; stroke-linejoin: miter; stroke-linecap: square"/>
   </g>
   <g id="patch_131">
    <path d="M 79.279688 304.918125 
L 849.209687 304.918125 
" style="fill: none; stroke: #000000; stroke-width: 0.8; stroke-linejoin: miter; stroke-linecap: square"/>
   </g>
   <g id="text_30">
    <!-- Energy Storage Levels -->
    <g transform="translate(396.980937 298.918125) scale(0.12 -0.12)">
     <defs>
      <path id="DejaVuSans-4c" d="M 628 4666 
L 1259 4666 
L 1259 531 
L 3531 531 
L 3531 0 
L 628 0 
L 628 4666 
z
" transform="scale(0.015625)"/>
      <path id="DejaVuSans-76" d="M 191 3500 
L 800 3500 
L 1894 563 
L 2988 3500 
L 3597 3500 
L 2284 0 
L 1503 0 
L 191 3500 
z
" transform="scale(0.015625)"/>
      <path id="DejaVuSans-73" d="M 2834 3397 
L 2834 2853 
Q 2591 2978 2328 3040 
Q 2066 3103 1784 3103 
Q 1356 3103 1142 2972 
Q 928 2841 928 2578 
Q 928 2378 1081 2264 
Q 1234 2150 1697 2047 
L 1894 2003 
Q 2506 1872 2764 1633 
Q 3022 1394 3022 966 
Q 3022 478 2636 193 
Q 2250 -91 1575 -91 
Q 1294 -91 989 -36 
Q 684 19 347 128 
L 347 722 
Q 666 556 975 473 
Q 1284 391 1588 391 
Q 1994 391 2212 530 
Q 2431 669 2431 922 
Q 2431 1156 2273 1281 
Q 2116 1406 1581 1522 
L 1381 1569 
Q 847 1681 609 1914 
Q 372 2147 372 2553 
Q 372 3047 722 3315 
Q 1072 3584 1716 3584 
Q 2034 3584 2315 3537 
Q 2597 3491 2834 3397 
z
" transform="scale(0.015625)"/>
     </defs>
     <use xlink:href="#DejaVuSans-45"/>
     <use xlink:href="#DejaVuSans-6e" transform="translate(63.183594 0)"/>
     <use xlink:href="#DejaVuSans-65" transform="translate(126.5625 0)"/>
     <use xlink:href="#DejaVuSans-72" transform="translate(188.085938 0)"/>
     <use xlink:href="#DejaVuSans-67" transform="translate(227.449219 0)"/>
     <use xlink:href="#DejaVuSans-79" transform="translate(290.925781 0)"/>
     <use xlink:href="#DejaVuSans-20" transform="translate(350.105469 0)"/>
     <use xlink:href="#DejaVuSans-53" transform="translate(381.892578 0)"/>
     <use xlink:href="#DejaVuSans-74" transform="translate(445.369141 0)"/>
     <use xlink:href="#DejaVuSans-6f" transform="translate(484.578125 0)"/>
     <use xlink:href="#DejaVuSans-72" transform="translate(545.759766 0)"/>
     <use xlink:href="#DejaVuSans-61" transform="translate(586.873047 0)"/>
     <use xlink:href="#DejaVuSans-67" transform="translate(648.152344 0)"/>
     <use xlink:href="#DejaVuSans-65" transform="translate(711.628906 0)"/>
     <use xlink:href="#DejaVuSans-20" transform="translate(773.152344 0)"/>
     <use xlink:href="#DejaVuSans-4c" transform="translate(804.939453 0)"/>
     <use xlink:href="#DejaVuSans-65" transform="translate(858.902344 0)"/>
     <use xlink:href="#DejaVuSans-76" transform="translate(920.425781 0)"/>
     <use xlink:href="#DejaVuSans-65" transform="translate(979.605469 0)"/>
     <use xlink:href="#DejaVuSans-6c" transform="translate(1041.128906 0)"/>
     <use xlink:href="#DejaVuSans-73" transform="translate(1068.912109 0)"/>
    </g>
   </g>
   <g id="legend_1">
    <g id="patch_132">
     <path d="M 677.159687 426.037187 
L 842.209687 426.037187 
Q 844.209687 426.037187 844.209687 424.037187 
L 844.209687 410.359062 
Q 844.209687 408.359062 842.209687 408.359062 
L 677.159687 408.359062 
Q 675.159687 408.359062 675.159687 410.359062 
L 675.159687 424.037187 
Q 675.159687 426.037187 677.159687 426.037187 
z
" style="fill: #ffffff; opacity: 0.8; stroke: #cccccc; stroke-linejoin: miter"/>
    </g>
    <g id="line2d_27">
     <path d="M 679.159687 416.4575 
L 689.159687 416.4575 
L 699.159687 416.4575 
" style="fill: none; stroke-dasharray: 5.55,2.4; stroke-dashoffset: 0; stroke: #ff0000; stroke-width: 1.5"/>
    </g>
    <g id="text_31">
     <!-- Battery Capacity (225000) -->
     <g transform="translate(707.159687 419.9575) scale(0.1 -0.1)">
      <defs>
       <path id="DejaVuSans-42" d="M 1259 2228 
L 1259 519 
L 2272 519 
Q 2781 519 3026 730 
Q 3272 941 3272 1375 
Q 3272 1813 3026 2020 
Q 2781 2228 2272 2228 
L 1259 2228 
z
M 1259 4147 
L 1259 2741 
L 2194 2741 
Q 2656 2741 2882 2914 
Q 3109 3088 3109 3444 
Q 3109 3797 2882 3972 
Q 2656 4147 2194 4147 
L 1259 4147 
z
M 628 4666 
L 2241 4666 
Q 2963 4666 3353 4366 
Q 3744 4066 3744 3513 
Q 3744 3084 3544 2831 
Q 3344 2578 2956 2516 
Q 3422 2416 3680 2098 
Q 3938 1781 3938 1306 
Q 3938 681 3513 340 
Q 3088 0 2303 0 
L 628 0 
L 628 4666 
z
" transform="scale(0.015625)"/>
       <path id="DejaVuSans-43" d="M 4122 4306 
L 4122 3641 
Q 3803 3938 3442 4084 
Q 3081 4231 2675 4231 
Q 1875 4231 1450 3742 
Q 1025 3253 1025 2328 
Q 1025 1406 1450 917 
Q 1875 428 2675 428 
Q 3081 428 3442 575 
Q 3803 722 4122 1019 
L 4122 359 
Q 3791 134 3420 21 
Q 3050 -91 2638 -91 
Q 1578 -91 968 557 
Q 359 1206 359 2328 
Q 359 3453 968 4101 
Q 1578 4750 2638 4750 
Q 3056 4750 3426 4639 
Q 3797 4528 4122 4306 
z
" transform="scale(0.015625)"/>
       <path id="DejaVuSans-70" d="M 1159 525 
L 1159 -1331 
L 581 -1331 
L 581 3500 
L 1159 3500 
L 1159 2969 
Q 1341 3281 1617 3432 
Q 1894 3584 2278 3584 
Q 2916 3584 3314 3078 
Q 3713 2572 3713 1747 
Q 3713 922 3314 415 
Q 2916 -91 2278 -91 
Q 1894 -91 1617 61 
Q 1341 213 1159 525 
z
M 3116 1747 
Q 3116 2381 2855 2742 
Q 2594 3103 2138 3103 
Q 1681 3103 1420 2742 
Q 1159 2381 1159 1747 
Q 1159 1113 1420 752 
Q 1681 391 2138 391 
Q 2594 391 2855 752 
Q 3116 1113 3116 1747 
z
" transform="scale(0.015625)"/>
       <path id="DejaVuSans-28" d="M 1984 4856 
Q 1566 4138 1362 3434 
Q 1159 2731 1159 2009 
Q 1159 1288 1364 580 
Q 1569 -128 1984 -844 
L 1484 -844 
Q 1016 -109 783 600 
Q 550 1309 550 2009 
Q 550 2706 781 3412 
Q 1013 4119 1484 4856 
L 1984 4856 
z
" transform="scale(0.015625)"/>
       <path id="DejaVuSans-29" d="M 513 4856 
L 1013 4856 
Q 1481 4119 1714 3412 
Q 1947 2706 1947 2009 
Q 1947 1309 1714 600 
Q 1481 -109 1013 -844 
L 513 -844 
Q 928 -128 1133 580 
Q 1338 1288 1338 2009 
Q 1338 2731 1133 3434 
Q 928 4138 513 4856 
z
" transform="scale(0.015625)"/>
      </defs>
      <use xlink:href="#DejaVuSans-42"/>
      <use xlink:href="#DejaVuSans-61" transform="translate(68.603516 0)"/>
      <use xlink:href="#DejaVuSans-74" transform="translate(129.882812 0)"/>
      <use xlink:href="#DejaVuSans-74" transform="translate(169.091797 0)"/>
      <use xlink:href="#DejaVuSans-65" transform="translate(208.300781 0)"/>
      <use xlink:href="#DejaVuSans-72" transform="translate(269.824219 0)"/>
      <use xlink:href="#DejaVuSans-79" transform="translate(310.9375 0)"/>
      <use xlink:href="#DejaVuSans-20" transform="translate(370.117188 0)"/>
      <use xlink:href="#DejaVuSans-43" transform="translate(401.904297 0)"/>
      <use xlink:href="#DejaVuSans-61" transform="translate(471.728516 0)"/>
      <use xlink:href="#DejaVuSans-70" transform="translate(533.007812 0)"/>
      <use xlink:href="#DejaVuSans-61" transform="translate(596.484375 0)"/>
      <use xlink:href="#DejaVuSans-63" transform="translate(657.763672 0)"/>
      <use xlink:href="#DejaVuSans-69" transform="translate(712.744141 0)"/>
      <use xlink:href="#DejaVuSans-74" transform="translate(740.527344 0)"/>
      <use xlink:href="#DejaVuSans-79" transform="translate(779.736328 0)"/>
      <use xlink:href="#DejaVuSans-20" transform="translate(838.916016 0)"/>
      <use xlink:href="#DejaVuSans-28" transform="translate(870.703125 0)"/>
      <use xlink:href="#DejaVuSans-32" transform="translate(909.716797 0)"/>
      <use xlink:href="#DejaVuSans-32" transform="translate(973.339844 0)"/>
      <use xlink:href="#DejaVuSans-35" transform="translate(1036.962891 0)"/>
      <use xlink:href="#DejaVuSans-30" transform="translate(1100.585938 0)"/>
      <use xlink:href="#DejaVuSans-30" transform="translate(1164.208984 0)"/>
      <use xlink:href="#DejaVuSans-30" transform="translate(1227.832031 0)"/>
      <use xlink:href="#DejaVuSans-29" transform="translate(1291.455078 0)"/>
     </g>
    </g>
   </g>
  </g>
 </g>
 <defs>
  <clipPath id="p8280435a4d">
   <rect x="79.279688" y="22.318125" width="769.93" height="224.56"/>
  </clipPath>
  <clipPath id="pc22cc0aede">
   <rect x="79.279688" y="304.918125" width="769.93" height="224.56"/>
  </clipPath>
 </defs>
</svg>
